<svg width="24" height="24" viewBox="0 0 24 24" fill="none" xmlns="http://www.w3.org/2000/svg">
<path d="M21.4998 4H19.3332V5.33333H21.3332V20H2.66651V5.33333H4.66651V4H2.49985C2.344 4.0026 2.1902 4.03588 2.04722 4.09794C1.90425 4.15999 1.77489 4.24961 1.66655 4.36166C1.55821 4.47371 1.47301 4.60601 1.41581 4.751C1.35861 4.89599 1.33053 5.05083 1.33318 5.20667V20.1267C1.33053 20.2825 1.35861 20.4373 1.41581 20.5823C1.47301 20.7273 1.55821 20.8596 1.66655 20.9717C1.77489 21.0837 1.90425 21.1733 2.04722 21.2354C2.1902 21.2974 2.344 21.3307 2.49985 21.3333H21.4998C21.6557 21.3307 21.8095 21.2974 21.9525 21.2354C22.0954 21.1733 22.2248 21.0837 22.3331 20.9717C22.4415 20.8596 22.5267 20.7273 22.5839 20.5823C22.6411 20.4373 22.6692 20.2825 22.6665 20.1267V5.20667C22.6692 5.05083 22.6411 4.89599 22.5839 4.751C22.5267 4.60601 22.4415 4.47371 22.3331 4.36166C22.2248 4.24961 22.0954 4.15999 21.9525 4.09794C21.8095 4.03588 21.6557 4.0026 21.4998 4Z" fill="#6C6C6C"/>
<path d="M5.33301 9.33398H6.66634V10.6673H5.33301V9.33398Z" fill="#6C6C6C"/>
<path d="M9.33301 9.33398H10.6663V10.6673H9.33301V9.33398Z" fill="#6C6C6C"/>
<path d="M13.333 9.33398H14.6663V10.6673H13.333V9.33398Z" fill="#6C6C6C"/>
<path d="M17.333 9.33398H18.6663V10.6673H17.333V9.33398Z" fill="#6C6C6C"/>
<path d="M5.33301 12.666H6.66634V13.9993H5.33301V12.666Z" fill="#6C6C6C"/>
<path d="M9.33301 12.666H10.6663V13.9993H9.33301V12.666Z" fill="#6C6C6C"/>
<path d="M13.333 12.666H14.6663V13.9993H13.333V12.666Z" fill="#6C6C6C"/>
<path d="M17.333 12.666H18.6663V13.9993H17.333V12.666Z" fill="#6C6C6C"/>
<path d="M5.33301 16H6.66634V17.3333H5.33301V16Z" fill="#6C6C6C"/>
<path d="M9.33301 16H10.6663V17.3333H9.33301V16Z" fill="#6C6C6C"/>
<path d="M13.333 16H14.6663V17.3333H13.333V16Z" fill="#6C6C6C"/>
<path d="M17.333 16H18.6663V17.3333H17.333V16Z" fill="#6C6C6C"/>
<path d="M6.66667 6.66732C6.84348 6.66732 7.01305 6.59708 7.13807 6.47206C7.2631 6.34703 7.33333 6.17746 7.33333 6.00065V2.00065C7.33333 1.82384 7.2631 1.65427 7.13807 1.52925C7.01305 1.40422 6.84348 1.33398 6.66667 1.33398C6.48986 1.33398 6.32029 1.40422 6.19526 1.52925C6.07024 1.65427 6 1.82384 6 2.00065V6.00065C6 6.17746 6.07024 6.34703 6.19526 6.47206C6.32029 6.59708 6.48986 6.66732 6.66667 6.66732Z" fill="#6C6C6C"/>
<path d="M17.3337 6.66732C17.5105 6.66732 17.68 6.59708 17.8051 6.47206C17.9301 6.34703 18.0003 6.17746 18.0003 6.00065V2.00065C18.0003 1.82384 17.9301 1.65427 17.8051 1.52925C17.68 1.40422 17.5105 1.33398 17.3337 1.33398C17.1568 1.33398 16.9873 1.40422 16.8623 1.52925C16.7372 1.65427 16.667 1.82384 16.667 2.00065V6.00065C16.667 6.17746 16.7372 6.34703 16.8623 6.47206C16.9873 6.59708 17.1568 6.66732 17.3337 6.66732Z" fill="#6C6C6C"/>
<path d="M8.66699 4H15.3337V5.33333H8.66699V4Z" fill="#6C6C6C"/>
</svg>
