<svg width="18" height="21" viewBox="0 0 18 21" fill="none" xmlns="http://www.w3.org/2000/svg">
<path d="M9 0.996094C9.19891 0.996094 9.38968 1.07511 9.53033 1.21576C9.67098 1.35642 9.75 1.54718 9.75 1.74609V3.00009H11.75C12.716 3.00009 13.5 3.78409 13.5 4.75009V10.0001H15.75C16.716 10.0001 17.5 10.7841 17.5 11.7501V19.2501C17.5 19.7142 17.3156 20.1593 16.9874 20.4875C16.6592 20.8157 16.2141 21.0001 15.75 21.0001H2.25C1.78587 21.0001 1.34075 20.8157 1.01256 20.4875C0.684375 20.1593 0.5 19.7142 0.5 19.2501V10.8201C0.5 10.2011 0.827 9.62809 1.36 9.31309L4.5 7.45809V4.74909C4.50027 4.28514 4.68476 3.84028 5.01292 3.5123C5.34108 3.18433 5.78604 3.00009 6.25 3.00009H8.25V1.74609C8.25 1.54718 8.32902 1.35642 8.46967 1.21576C8.61032 1.07511 8.80109 0.996094 9 0.996094ZM6 7.01809C6.81 7.13809 7.5 7.82409 7.5 8.75209V19.4991H10.5V11.7491C10.5 11.3283 10.6517 10.9216 10.9271 10.6035C11.2026 10.2854 11.5835 10.0772 12 10.0171V4.75009C12 4.68379 11.9737 4.6202 11.9268 4.57332C11.8799 4.52643 11.8163 4.50009 11.75 4.50009H6.25C6.1837 4.50009 6.12011 4.52643 6.07322 4.57332C6.02634 4.6202 6 4.68379 6 4.75009V7.01909V7.01809ZM12.25 11.4991C12.1837 11.4991 12.1201 11.5254 12.0732 11.5723C12.0263 11.6192 12 11.6828 12 11.7491V19.4991H15.75C15.8163 19.4991 15.8799 19.4728 15.9268 19.4259C15.9737 19.379 16 19.3154 16 19.2491V11.7491C16 11.6828 15.9737 11.6192 15.9268 11.5723C15.8799 11.5254 15.8163 11.4991 15.75 11.4991H12.25ZM5.623 8.53709L2.123 10.6051C2.08559 10.6272 2.05457 10.6586 2.033 10.6963C2.01143 10.734 2.00006 10.7767 2 10.8201V19.2501C2 19.3871 2.112 19.5001 2.25 19.5001H6V8.75109C5.99994 8.70704 5.98824 8.66379 5.96609 8.62571C5.94394 8.58764 5.91212 8.55609 5.87385 8.53427C5.83558 8.51244 5.79223 8.50112 5.74818 8.50144C5.70413 8.50176 5.66094 8.51372 5.623 8.53609V8.53709Z" fill="#6C6C6C"/>
</svg>
