<svg width="24" height="17" viewBox="0 0 24 17" fill="none" xmlns="http://www.w3.org/2000/svg">
<path d="M12.0004 0.65625L11.6486 0.84375L1.52362 6.09375L0.234375 6.75L1.50038 7.383V13.7108C1.05187 13.9718 0.750375 14.4458 0.750375 15C0.750375 15.3978 0.90841 15.7794 1.18971 16.0607C1.47102 16.342 1.85255 16.5 2.25038 16.5C2.6482 16.5 3.02973 16.342 3.31104 16.0607C3.59234 15.7794 3.75038 15.3978 3.75038 15C3.75038 14.4465 3.44887 13.9718 3.00038 13.7108V8.15625L4.50038 8.9295V12.75C4.50038 13.0808 4.65263 13.38 4.82888 13.5705C5.00438 13.761 5.21813 13.875 5.43788 13.992C5.88037 14.2238 6.40538 14.388 7.05487 14.5312C8.35612 14.8215 10.0901 15 12.0004 15C13.9106 15 15.6454 14.8215 16.9459 14.5312C17.5961 14.388 18.1204 14.2238 18.5629 13.992C18.7826 13.875 18.9964 13.761 19.1726 13.5705C19.3785 13.3463 19.4951 13.0544 19.5004 12.75V8.9295L22.4771 7.40625L23.7656 6.75L22.4771 6.09375L12.3521 0.84375L12.0004 0.65625ZM12.0004 2.34375L20.4851 6.75L19.1486 7.4295C18.9776 7.25805 18.7798 7.11567 18.5629 7.008C18.1234 6.77625 17.5954 6.612 16.9459 6.46875C15.6484 6.1785 13.9196 6 12.0004 6C10.0811 6 8.35312 6.1785 7.05487 6.46875C6.40462 6.612 5.87738 6.77625 5.43788 7.008C5.22098 7.11567 5.02312 7.25805 4.85213 7.4295L3.51562 6.75L12.0004 2.34375ZM12.0004 7.5C13.8311 7.5 15.4781 7.66725 16.6174 7.92225C17.1859 8.0475 17.6426 8.1945 17.8834 8.31975C17.9591 8.361 17.9711 8.391 18.0004 8.41425V11.2733C17.656 11.1484 17.3038 11.0467 16.9459 10.9688C15.6446 10.6785 13.9106 10.5 12.0004 10.5C10.0901 10.5 8.35538 10.6785 7.05487 10.9688C6.65662 11.0565 6.31388 11.1593 6.00038 11.2733V8.415C6.03038 8.39175 6.04163 8.3625 6.11738 8.32125C6.35738 8.19525 6.81487 8.04825 7.38337 7.923C8.52337 7.66725 10.1696 7.5 12.0004 7.5ZM12.0004 12C13.8199 12 15.4751 12.1672 16.6174 12.4222C16.9713 12.4965 17.3168 12.6064 17.6486 12.75C17.3168 12.8939 16.9713 13.004 16.6174 13.0785C15.4751 13.3335 13.8199 13.5 12.0004 13.5C10.1809 13.5 8.52562 13.3328 7.38337 13.0778C7.02948 13.0035 6.68398 12.8936 6.35212 12.75C6.68395 12.6061 7.02945 12.496 7.38337 12.4215C8.52562 12.1673 10.1809 12 12.0004 12Z" fill="#6C6C6C"/>
</svg>
