<svg width="22" height="16" viewBox="0 0 22 16" fill="none" xmlns="http://www.w3.org/2000/svg">
<path d="M20.333 0H1.66634C1.31272 0 0.973581 0.140476 0.723532 0.390524C0.473484 0.640573 0.333008 0.979711 0.333008 1.33333V14.6667C0.333008 15.0203 0.473484 15.3594 0.723532 15.6095C0.973581 15.8595 1.31272 16 1.66634 16H20.333C20.6866 16 21.0258 15.8595 21.2758 15.6095C21.5259 15.3594 21.6663 15.0203 21.6663 14.6667V1.33333C21.6663 0.979711 21.5259 0.640573 21.2758 0.390524C21.0258 0.140476 20.6866 0 20.333 0V0ZM19.3063 14.6667H2.77301L7.43967 9.84L6.47967 8.91333L1.66634 13.8933V2.34667L9.95301 10.5933C10.2028 10.8417 10.5408 10.9811 10.893 10.9811C11.2453 10.9811 11.5832 10.8417 11.833 10.5933L20.333 2.14V13.8067L15.4263 8.9L14.4863 9.84L19.3063 14.6667ZM2.53967 1.33333H19.253L10.893 9.64667L2.53967 1.33333Z" fill="#6C6C6C"/>
</svg>
