<svg width="56" height="58" viewBox="0 0 56 58" fill="none" xmlns="http://www.w3.org/2000/svg">
<path d="M49.498 46.8606C52.3703 43.4048 54.3679 39.3081 55.322 34.917C56.2761 30.5259 56.1586 25.9695 54.9794 21.6334C53.8001 17.2974 51.5939 13.3091 48.5473 10.006C45.5007 6.70286 41.7034 4.18212 37.4765 2.65698C33.2497 1.13184 28.7177 0.647166 24.2639 1.24397C19.8102 1.84077 15.5656 3.50148 11.8894 6.08562C8.21323 8.66976 5.2135 12.1013 3.14399 16.09C1.07448 20.0786 -0.00392519 24.507 1.07353e-05 29.0006C0.00152108 35.533 2.3035 41.8562 6.50201 46.8606L6.46201 46.8946C6.60201 47.0626 6.76201 47.2066 6.90601 47.3726C7.08601 47.5786 7.28001 47.7726 7.46601 47.9726C8.02601 48.5806 8.60201 49.1646 9.20601 49.7126C9.39001 49.8806 9.58001 50.0366 9.76601 50.1966C10.406 50.7486 11.064 51.2726 11.746 51.7606C11.834 51.8206 11.914 51.8986 12.002 51.9606V51.9366C16.6862 55.2329 22.2742 57.002 28.002 57.002C33.7298 57.002 39.3178 55.2329 44.002 51.9366V51.9606C44.09 51.8986 44.168 51.8206 44.258 51.7606C44.938 51.2706 45.598 50.7486 46.238 50.1966C46.424 50.0366 46.614 49.8786 46.798 49.7126C47.402 49.1626 47.978 48.5806 48.538 47.9726C48.724 47.7726 48.916 47.5786 49.098 47.3726C49.24 47.2066 49.402 47.0626 49.542 46.8926L49.498 46.8606ZM28 13.0006C29.78 13.0006 31.5201 13.5284 33.0001 14.5174C34.4802 15.5063 35.6337 16.9119 36.3149 18.5565C36.9961 20.201 37.1743 22.0106 36.8271 23.7564C36.4798 25.5022 35.6226 27.1059 34.364 28.3646C33.1053 29.6232 31.5017 30.4804 29.7558 30.8277C28.01 31.1749 26.2004 30.9967 24.5559 30.3155C22.9113 29.6343 21.5057 28.4808 20.5168 27.0007C19.5279 25.5207 19 23.7806 19 22.0006C19 19.6137 19.9482 17.3245 21.6361 15.6366C23.3239 13.9488 25.6131 13.0006 28 13.0006ZM12.014 46.8606C12.0487 44.2345 13.1159 41.7277 14.9847 39.8825C16.8535 38.0372 19.3737 37.002 22 37.0006H34C36.6263 37.002 39.1465 38.0372 41.0153 39.8825C42.8841 41.7277 43.9513 44.2345 43.986 46.8606C39.5997 50.8133 33.9045 53.0008 28 53.0008C22.0955 53.0008 16.4003 50.8133 12.014 46.8606Z" fill="#6C6C6C"/>
</svg>
