<svg width="18" height="18" viewBox="0 0 18 18" fill="none" xmlns="http://www.w3.org/2000/svg">
<path d="M17.1583 0.841034C16.8917 0.574396 16.5752 0.362885 16.2268 0.218579C15.8785 0.0742735 15.5051 0 15.1281 0C14.7511 0 14.3777 0.0742735 14.0294 0.218579C13.681 0.362885 13.3646 0.574396 13.098 0.841034L2.00604 11.9334C1.73488 12.2048 1.53051 12.5355 1.40907 12.8994L0.0381452 17.0139C-0.00565017 17.1459 -0.0118681 17.2875 0.0201864 17.4228C0.0522409 17.5582 0.121304 17.682 0.219658 17.7803C0.318012 17.8787 0.441781 17.9478 0.57713 17.9798C0.71248 18.0119 0.854077 18.0056 0.986096 17.9619L5.10038 16.5909C5.46428 16.4694 5.79497 16.2651 6.06633 15.9939L14.9984 7.06147L15.3928 7.45596C15.6035 7.6669 15.7218 7.95283 15.7218 8.25096C15.7218 8.54908 15.6035 8.83501 15.3928 9.04595L13.7174 10.7199C13.5766 10.8608 13.4975 11.0518 13.4975 11.2509C13.4975 11.4501 13.5766 11.6411 13.7174 11.7819C13.8583 11.9227 14.0492 12.0019 14.2484 12.0019C14.4476 12.0019 14.6386 11.9227 14.7794 11.7819L16.4533 10.1064C16.9451 9.61421 17.2214 8.94682 17.2214 8.25096C17.2214 7.55509 16.9451 6.8877 16.4533 6.39548L16.0588 6.00098L17.1583 4.90299C17.4251 4.63636 17.6368 4.31976 17.7812 3.97127C17.9257 3.62278 18 3.24925 18 2.87201C18 2.49478 17.9257 2.12124 17.7812 1.77275C17.6368 1.42427 17.4251 1.10766 17.1583 0.841034ZM14.4914 5.44899C14.4757 5.46328 14.4607 5.4783 14.4464 5.49399L5.00589 14.9334C4.89923 15.0397 4.76932 15.1198 4.62641 15.1674L1.93555 16.0644L2.8325 13.3749C2.87988 13.2315 2.95999 13.101 3.06649 12.9939L14.1584 1.90302C14.2858 1.77567 14.4369 1.67466 14.6033 1.60574C14.7697 1.53682 14.948 1.50134 15.1281 1.50134C15.3082 1.50134 15.4865 1.53682 15.6529 1.60574C15.8193 1.67466 15.9705 1.77567 16.0978 1.90302C16.2251 2.03037 16.3262 2.18155 16.3951 2.34794C16.464 2.51433 16.4995 2.69267 16.4995 2.87276C16.4995 3.05286 16.464 3.23119 16.3951 3.39758C16.3262 3.56397 16.2251 3.71515 16.0978 3.8425L14.4914 5.44899Z" fill="#6C6C6C"/>
</svg>
