<svg width="20" height="20" viewBox="0 0 20 20" fill="none" xmlns="http://www.w3.org/2000/svg">
<path d="M19.0642 2.20144L19.0321 2.18138L14.9731 0.181641L10.592 6.02306L12.6076 8.71074C12.5473 9.72432 12.1175 10.6806 11.3995 11.3986C10.6815 12.1166 9.72521 12.5464 8.71162 12.6067L6.02399 10.5911L0.182617 14.9721L2.16571 18.9972L2.1824 19.0312L2.20251 19.0632C2.30834 19.2337 2.45605 19.3743 2.63158 19.4716C2.80711 19.5689 3.00462 19.6196 3.20531 19.619H4.25268C6.27075 19.619 8.26906 19.2215 10.1335 18.4492C11.998 17.677 13.692 16.545 15.119 15.118C16.546 13.691 17.678 11.9969 18.4502 10.1325C19.2225 8.26803 19.62 6.26972 19.62 4.25166V3.20423C19.6206 3.00355 19.5699 2.80604 19.4726 2.63051C19.3753 2.45498 19.2348 2.30727 19.0642 2.20144ZM18.12 4.25166C18.12 11.8981 11.8991 18.119 4.25268 18.119H3.40518L2.07834 15.4254L6.02427 12.466L8.22116 14.1136H8.47115C9.96745 14.1119 11.402 13.5168 12.46 12.4587C13.5181 11.4007 14.1132 9.96615 14.1149 8.46984V8.21986L12.4673 6.02302L15.4264 2.07731L18.12 3.40439V4.25166Z" fill="#6C6C6C"/>
</svg>
