<svg width="22" height="24" viewBox="0 0 22 24" fill="none" xmlns="http://www.w3.org/2000/svg">
<path d="M11 13.5C14.3137 13.5 17 10.8137 17 7.5C17 4.18629 14.3137 1.5 11 1.5C7.68629 1.5 5 4.18629 5 7.5C5 10.8137 7.68629 13.5 11 13.5Z" stroke="#6C6C6C" stroke-width="1.5" stroke-linecap="round" stroke-linejoin="round"/>
<path d="M5.73359 10.6797L1.25 18.7506L5.32156 18.7309C5.45202 18.7303 5.58038 18.7637 5.69399 18.8278C5.8076 18.8919 5.90252 18.9845 5.96938 19.0966L8 22.5006L12.1405 13.3919" stroke="#6C6C6C" stroke-width="1.5" stroke-linecap="round" stroke-linejoin="round"/>
<path d="M16.1816 10.5L20.75 18.75L16.6784 18.7303C16.548 18.7297 16.4196 18.763 16.306 18.8272C16.1924 18.8913 16.0975 18.9839 16.0306 19.0959L14 22.5L11 15.9" stroke="#6C6C6C" stroke-width="1.5" stroke-linecap="round" stroke-linejoin="round"/>
<path d="M11 10.5C12.6569 10.5 14 9.15685 14 7.5C14 5.84315 12.6569 4.5 11 4.5C9.34315 4.5 8 5.84315 8 7.5C8 9.15685 9.34315 10.5 11 10.5Z" stroke="#6C6C6C" stroke-width="1.5" stroke-linecap="round" stroke-linejoin="round"/>
</svg>
