<svg width="16" height="14" viewBox="0 0 16 14" fill="none" xmlns="http://www.w3.org/2000/svg">
<path d="M1.8666 4.53317V2.84434C1.8666 2.60731 1.9703 2.3851 2.1777 2.1777C2.3851 1.9703 2.60731 1.8666 2.84434 1.8666H10.3996C10.5478 1.8666 10.6811 1.89623 10.7996 1.95549L12.3107 0.666643C11.6588 0.222214 11.0218 0 10.3996 0H2.84434C2.01474 0 1.33329 0.266657 0.799972 0.799971C0.266657 1.33329 0 2.01474 0 2.84434V10.3996C0 11.17 0.274064 11.8366 0.822193 12.3996C1.37032 12.9625 2.04437 13.244 2.84434 13.244H10.3996C11.1996 13.244 11.8737 12.9625 12.4218 12.3996C12.9699 11.8366 13.244 11.17 13.244 10.3996V7.28863L11.3774 8.97746V10.3996C11.3774 10.6367 11.2737 10.8589 11.0663 11.0663C10.8589 11.2737 10.6367 11.3774 10.3996 11.3774H2.84434C2.60731 11.3774 2.3851 11.2737 2.1777 11.0663C1.9703 10.8589 1.8666 10.6367 1.8666 10.3996V4.53317ZM15.8217 2.62213L14.4884 1.11107L13.244 2.35547L11.3774 3.95541L7.7775 7.11086L5.46647 4.17763L3.95542 5.2887L7.37752 9.9552L11.3774 6.44421L13.244 4.79983L15.8217 2.62213Z" fill="#50DBB2"/>
</svg>
