<svg width="26" height="26" viewBox="0 0 26 26" fill="none" xmlns="http://www.w3.org/2000/svg">
<path d="M12.9395 25C6.31202 25 0.939453 19.6274 0.939453 13C0.939453 6.37257 6.31202 1 12.9395 1C19.5669 1 24.9395 6.37257 24.9395 13C24.9395 19.6274 19.5669 25 12.9395 25Z" stroke="#50DBB2" stroke-width="1.5" stroke-miterlimit="10"/>
<path d="M10.7624 21H14.2502V12.9304H16.6833L16.9395 10.2313H14.2426C14.2426 10.2313 14.2426 9.22261 14.2426 8.69391C14.2426 8.05391 14.3782 7.80348 15.0487 7.80348C15.5835 7.80348 16.9395 7.80348 16.9395 7.80348V5C16.9395 5 14.9507 5 14.5214 5C11.9225 5 10.7549 6.05739 10.7549 8.07478C10.7549 9.83478 10.7549 10.2313 10.7549 10.2313H8.93945V12.9652H10.7549V21H10.7624Z" fill="#50DBB2"/>
</svg>
