<svg width="26" height="26" viewBox="0 0 26 26" fill="none" xmlns="http://www.w3.org/2000/svg">
<path d="M12.8809 25C6.25343 25 0.880859 19.6274 0.880859 13C0.880859 6.37257 6.25343 1 12.8809 1C19.5083 1 24.8809 6.37257 24.8809 13C24.8809 19.6274 19.5083 25 12.8809 25Z" stroke="#50DBB2" stroke-width="1.5" stroke-miterlimit="10"/>
<path d="M12.983 7.60469C14.7434 7.60469 14.9517 7.611 15.6457 7.64255C16.2893 7.6741 16.6363 7.78137 16.8698 7.86971C17.179 7.98959 17.3935 8.13472 17.627 8.36187C17.8605 8.59533 17.9993 8.80986 18.1192 9.11904C18.2075 9.3525 18.3148 9.69954 18.3463 10.3431C18.3779 11.0372 18.3842 11.2454 18.3842 13.0059C18.3842 14.7663 18.3779 14.9745 18.3463 15.6686C18.3148 16.3122 18.2075 16.6592 18.1192 16.8927C17.9993 17.2019 17.8541 17.4164 17.627 17.6499C17.3935 17.877 17.179 18.0221 16.8698 18.142C16.6363 18.2304 16.2893 18.3376 15.6457 18.3692C14.9517 18.4007 14.7434 18.407 12.983 18.407C11.2226 18.407 11.0143 18.4007 10.3203 18.3692C9.67668 18.3376 9.32964 18.2304 9.09617 18.142C8.787 18.0221 8.57246 17.877 8.33899 17.6499C8.10553 17.4164 7.96672 17.2019 7.84683 16.8927C7.75849 16.6592 7.65124 16.3122 7.61969 15.6686C7.58814 14.9745 7.58181 14.7663 7.58181 13.0059C7.58181 11.2454 7.58814 11.0372 7.61969 10.3431C7.65124 9.69954 7.75849 9.3525 7.84683 9.11904C7.96672 8.80986 8.11184 8.59533 8.33899 8.36187C8.57246 8.12841 8.787 7.98959 9.09617 7.86971C9.32964 7.78137 9.67668 7.6741 10.3203 7.64255C11.0143 7.611 11.2226 7.60469 12.983 7.60469ZM12.983 6.41846C11.1973 6.41846 10.9702 6.42477 10.2698 6.45632C9.5694 6.48786 9.08986 6.60144 8.67341 6.76549C8.23804 6.93586 7.87207 7.1567 7.5061 7.52267C7.14013 7.88864 6.91299 8.2546 6.74894 8.68998C6.58488 9.10642 6.47761 9.58596 6.44606 10.2863C6.41451 10.9867 6.4082 11.2139 6.4082 12.9996C6.4082 14.7852 6.41451 15.0124 6.44606 15.7128C6.47761 16.4131 6.59119 16.8927 6.74894 17.3091C6.9193 17.7445 7.14013 18.1105 7.5061 18.4764C7.87207 18.8424 8.23804 19.0696 8.67341 19.2336C9.08986 19.3977 9.5694 19.5049 10.2698 19.5428C10.9702 19.5743 11.1973 19.5807 12.983 19.5807C14.7687 19.5807 14.9958 19.5743 15.6962 19.5428C16.3966 19.5112 16.8761 19.3977 17.2926 19.2336C17.7279 19.0632 18.0939 18.8424 18.4599 18.4764C18.8259 18.1105 19.053 17.7445 19.217 17.3091C19.3811 16.8927 19.4884 16.4131 19.5199 15.7128C19.5515 15.0124 19.5578 14.7852 19.5578 12.9996C19.5578 11.2139 19.5515 10.9867 19.5199 10.2863C19.4884 9.58596 19.3748 9.10642 19.217 8.68998C19.0467 8.2546 18.8259 7.88864 18.4599 7.52267C18.0939 7.1567 17.7279 6.92955 17.2926 6.76549C16.8761 6.60144 16.3966 6.49417 15.6962 6.45632C14.9958 6.42477 14.7687 6.41846 12.983 6.41846Z" fill="#50DBB2"/>
<path d="M12.9836 9.61768C11.1159 9.61768 9.60156 11.132 9.60156 12.9997C9.60156 14.8674 11.1159 16.3818 12.9836 16.3818C14.8513 16.3818 16.3656 14.8674 16.3656 12.9997C16.3656 11.132 14.8513 9.61768 12.9836 9.61768ZM12.9836 15.1955C11.7721 15.1955 10.7878 14.2112 10.7878 12.9997C10.7878 11.7882 11.7721 10.8039 12.9836 10.8039C14.1951 10.8039 15.1794 11.7882 15.1794 12.9997C15.1794 14.2112 14.1951 15.1955 12.9836 15.1955Z" fill="#50DBB2"/>
<path d="M17.2864 9.48526C17.2864 9.92063 16.9331 10.274 16.4977 10.274C16.0623 10.274 15.709 9.92063 15.709 9.48526C15.709 9.04988 16.0623 8.69653 16.4977 8.69653C16.9331 8.69653 17.2864 9.04988 17.2864 9.48526Z" fill="#50DBB2"/>
</svg>
