<svg width="30" height="29" viewBox="0 0 30 29" fill="none" xmlns="http://www.w3.org/2000/svg">
<path d="M14.9293 28.4065C7.13232 28.4065 0.811646 22.176 0.811646 14.4903C0.811646 6.80454 7.13232 0.574051 14.9293 0.574051C22.7263 0.574051 29.0469 6.80454 29.0469 14.4903C29.0469 22.176 22.7263 28.4065 14.9293 28.4065Z" fill="#497AE0"/>
<path d="M12.3682 23.7678H16.4714V14.4096H19.334L19.6353 11.2795H16.4626C16.4626 11.2795 16.4626 10.1097 16.4626 9.49656C16.4626 8.75436 16.6221 8.46394 17.4108 8.46394C18.0401 8.46394 19.6353 8.46394 19.6353 8.46394V5.21278C19.6353 5.21278 17.2956 5.21278 16.7905 5.21278C13.733 5.21278 12.3593 6.43903 12.3593 8.77857C12.3593 10.8196 12.3593 11.2795 12.3593 11.2795H10.2235V14.4499H12.3593V23.7678H12.3682Z" fill="white"/>
</svg>
