<svg width="29" height="29" viewBox="0 0 29 29" fill="none" xmlns="http://www.w3.org/2000/svg">
<path d="M14.8589 28.4065C7.06188 28.4065 0.741211 22.176 0.741211 14.4903C0.741211 6.80454 7.06188 0.574051 14.8589 0.574051C22.6558 0.574051 28.9765 6.80454 28.9765 14.4903C28.9765 22.176 22.6558 28.4065 14.8589 28.4065Z" fill="url(#paint0_linear_968_6655)"/>
<path d="M14.9804 8.23351C17.0515 8.23351 17.2965 8.24083 18.113 8.27742C18.8702 8.314 19.2785 8.4384 19.5531 8.54084C19.9169 8.67987 20.1693 8.84817 20.4439 9.1116C20.7186 9.38234 20.8819 9.63113 21.0229 9.98968C21.1269 10.2604 21.2531 10.6629 21.2902 11.4092C21.3273 12.2142 21.3347 12.4556 21.3347 14.4972C21.3347 16.5387 21.3273 16.7802 21.2902 17.5851C21.2531 18.3315 21.1269 18.7339 21.0229 19.0047C20.8819 19.3632 20.7112 19.612 20.4439 19.8827C20.1693 20.1462 19.9169 20.3145 19.5531 20.4535C19.2785 20.5559 18.8702 20.6803 18.113 20.7169C17.2965 20.7535 17.0515 20.7608 14.9804 20.7608C12.9093 20.7608 12.6644 20.7535 11.8478 20.7169C11.0906 20.6803 10.6823 20.5559 10.4077 20.4535C10.0439 20.3145 9.79154 20.1462 9.51688 19.8827C9.24222 19.612 9.07891 19.3632 8.93787 19.0047C8.83394 18.7339 8.70776 18.3315 8.67064 17.5851C8.63352 16.7802 8.62608 16.5387 8.62608 14.4972C8.62608 12.4556 8.63352 12.2142 8.67064 11.4092C8.70776 10.6629 8.83394 10.2604 8.93787 9.98968C9.07891 9.63113 9.24964 9.38234 9.51688 9.1116C9.79154 8.84085 10.0439 8.67987 10.4077 8.54084C10.6823 8.4384 11.0906 8.314 11.8478 8.27742C12.6644 8.24083 12.9093 8.23351 14.9804 8.23351ZM14.9804 6.85785C12.8796 6.85785 12.6124 6.86517 11.7884 6.90175C10.9644 6.93834 10.4002 7.07005 9.91031 7.2603C9.39811 7.45787 8.96755 7.71398 8.537 8.13839C8.10645 8.56279 7.83923 8.9872 7.64622 9.4921C7.45322 9.97504 7.32702 10.5312 7.2899 11.3434C7.25278 12.1556 7.24536 12.419 7.24536 14.4899C7.24536 16.5607 7.25278 16.8241 7.2899 17.6363C7.32702 18.4485 7.46064 19.0047 7.64622 19.4876C7.84665 19.9925 8.10645 20.4169 8.537 20.8413C8.96755 21.2657 9.39811 21.5292 9.91031 21.7194C10.4002 21.9097 10.9644 22.034 11.7884 22.078C12.6124 22.1145 12.8796 22.1219 14.9804 22.1219C17.0812 22.1219 17.3484 22.1145 18.1724 22.078C18.9964 22.0414 19.5606 21.9097 20.0505 21.7194C20.5627 21.5218 20.9933 21.2657 21.4238 20.8413C21.8544 20.4169 22.1216 19.9925 22.3146 19.4876C22.5076 19.0047 22.6338 18.4485 22.6709 17.6363C22.708 16.8241 22.7155 16.5607 22.7155 14.4899C22.7155 12.419 22.708 12.1556 22.6709 11.3434C22.6338 10.5312 22.5002 9.97504 22.3146 9.4921C22.1142 8.9872 21.8544 8.56279 21.4238 8.13839C20.9933 7.71398 20.5627 7.45055 20.0505 7.2603C19.5606 7.07005 18.9964 6.94566 18.1724 6.90175C17.3484 6.86517 17.0812 6.85785 14.9804 6.85785Z" fill="white"/>
<path d="M14.9803 10.568C12.7831 10.568 11.0015 12.3241 11.0015 14.4901C11.0015 16.656 12.7831 18.4122 14.9803 18.4122C17.1776 18.4122 18.9592 16.656 18.9592 14.4901C18.9592 12.3241 17.1776 10.568 14.9803 10.568ZM14.9803 17.0365C13.5551 17.0365 12.397 15.895 12.397 14.4901C12.397 13.0851 13.5551 11.9436 14.9803 11.9436C16.4056 11.9436 17.5636 13.0851 17.5636 14.4901C17.5636 15.895 16.4056 17.0365 14.9803 17.0365Z" fill="white"/>
<path d="M20.0431 10.4145C20.0431 10.9194 19.6274 11.3291 19.1152 11.3291C18.603 11.3291 18.1873 10.9194 18.1873 10.4145C18.1873 9.90956 18.603 9.49979 19.1152 9.49979C19.6274 9.49979 20.0431 9.90956 20.0431 10.4145Z" fill="white"/>
<defs>
<linearGradient id="paint0_linear_968_6655" x1="-16.7645" y1="37.684" x2="25.2444" y2="11.0484" gradientUnits="userSpaceOnUse">
<stop stop-color="#555ACD"/>
<stop offset="1" stop-color="#D42E94"/>
</linearGradient>
</defs>
</svg>
