<svg width="29" height="28" viewBox="0 0 29 28" fill="none" xmlns="http://www.w3.org/2000/svg">
<path d="M14.5722 27.9848C6.77526 27.9848 0.45459 21.7543 0.45459 14.0686C0.45459 6.38284 6.77526 0.152344 14.5722 0.152344C22.3692 0.152344 28.6899 6.38284 28.6899 14.0686C28.6899 21.7543 22.3692 27.9848 14.5722 27.9848Z" fill="#33BEFF"/>
<path d="M7.72729 18.6468C9.04635 19.4168 10.6163 19.867 12.301 19.867C17.8353 19.867 20.968 15.6126 20.7816 11.7889C21.3623 11.4039 21.8713 10.9275 22.2727 10.386C21.7351 10.6013 21.1616 10.7448 20.5594 10.8101C21.1759 10.4773 21.6491 9.94225 21.8713 9.30931C21.2978 9.62252 20.6598 9.84437 19.9787 9.96835C19.4339 9.43981 18.6597 9.11356 17.7994 9.11356C15.871 9.11356 14.4588 10.7514 14.8961 12.4479C12.4157 12.337 10.222 11.2538 8.74526 9.60947C7.96386 10.8297 8.33665 12.4283 9.67004 13.2375C9.18256 13.2244 8.72376 13.1004 8.31514 12.8981C8.28646 14.1575 9.27575 15.332 10.7095 15.593C10.2866 15.6974 9.82775 15.7235 9.36178 15.6387C9.74172 16.7154 10.8457 17.5049 12.1504 17.5245C10.8959 18.4184 9.31159 18.8165 7.72729 18.6468Z" fill="white"/>
</svg>
