<svg width="27" height="27" viewBox="0 0 27 27" fill="none" xmlns="http://www.w3.org/2000/svg">
<path d="M13.6367 25.6365C7.00929 25.6365 1.63672 20.2639 1.63672 13.6365C1.63672 7.00904 7.00929 1.63647 13.6367 1.63647C20.2642 1.63647 25.6367 7.00904 25.6367 13.6365C25.6367 20.2639 20.2642 25.6365 13.6367 25.6365Z" stroke="#50DBB2" stroke-width="1.5" stroke-miterlimit="10"/>
<path d="M7.81836 17.5841C8.93956 18.248 10.274 18.6363 11.706 18.6363C16.4101 18.6363 19.073 14.9677 18.9146 11.6705C19.4081 11.3385 19.8408 10.9277 20.182 10.4607C19.725 10.6464 19.2375 10.7702 18.7257 10.8265C19.2497 10.5395 19.6519 10.0781 19.8408 9.53233C19.3533 9.8024 18.811 9.99371 18.2321 10.1006C17.769 9.64486 17.1109 9.36353 16.3797 9.36353C14.7405 9.36353 13.5401 10.7758 13.9118 12.2387C11.8035 12.1431 9.93888 11.2091 8.68363 9.79115C8.01944 10.8433 8.33631 12.2219 9.46969 12.9196C9.05534 12.9083 8.66535 12.8014 8.31803 12.627C8.29365 13.7129 9.13455 14.7257 10.3532 14.9508C9.99373 15.0408 9.60374 15.0633 9.20767 14.9902C9.53062 15.9186 10.469 16.5994 11.578 16.6163C10.5117 17.3871 9.16501 17.7304 7.81836 17.5841Z" fill="#50DBB2"/>
</svg>
