<svg width="70" height="70" viewBox="0 0 70 70" fill="none" xmlns="http://www.w3.org/2000/svg">
<circle cx="35" cy="35" r="34" fill="white" stroke="#FD5579" stroke-width="2"/>
<path d="M32.5 27.25C33.4889 27.25 34.4556 26.9568 35.2779 26.4074C36.1001 25.8579 36.741 25.077 37.1194 24.1634C37.4978 23.2498 37.5969 22.2445 37.4039 21.2746C37.211 20.3046 36.7348 19.4137 36.0355 18.7145C35.3363 18.0152 34.4454 17.539 33.4755 17.3461C32.5055 17.1531 31.5002 17.2522 30.5866 17.6306C29.673 18.009 28.8921 18.6499 28.3427 19.4722C27.7932 20.2944 27.5 21.2611 27.5 22.25C27.5015 23.5756 28.0288 24.8465 28.9661 25.7839C29.9035 26.7213 31.1744 27.2485 32.5 27.25V27.25ZM32.5 19.75C32.9945 19.75 33.4778 19.8966 33.8889 20.1713C34.3 20.446 34.6205 20.8365 34.8097 21.2933C34.9989 21.7501 35.0484 22.2528 34.952 22.7377C34.8555 23.2227 34.6174 23.6681 34.2678 24.0178C33.9181 24.3674 33.4727 24.6055 32.9877 24.702C32.5028 24.7984 32.0001 24.7489 31.5433 24.5597C31.0865 24.3705 30.696 24.0501 30.4213 23.6389C30.1466 23.2278 30 22.7445 30 22.25C30.0007 21.5872 30.2644 20.9517 30.7331 20.4831C31.2017 20.0144 31.8372 19.7507 32.5 19.75ZM42.653 35.6383C41.4795 34.318 39.9137 33.4774 37.7616 33.0206L35.8243 28.5H28.9159L26.875 42.7862V47.25H31.25V54.75H38.75V47.25H45V43.5C45 39.9866 44.2323 37.415 42.653 35.6383ZM42.5 44.75H36.25V52.25H33.75V44.75H29.375V42.9638L31.0841 31H34.1757L35.9953 35.2456L36.6695 35.358C38.5835 35.677 39.8908 36.2938 40.7845 37.2992C41.9388 38.5979 42.5 40.6262 42.5 43.5V44.75Z" fill="#FD5579"/>
</svg>
