<svg width="70" height="70" viewBox="0 0 70 70" fill="none" xmlns="http://www.w3.org/2000/svg">
<path d="M34.9997 13C31.552 13 28.7471 15.8049 28.7471 19.2526C28.7471 22.7004 31.552 25.5053 34.9997 25.5053C38.4474 25.5053 41.2524 22.7004 41.2524 19.2526C41.2524 15.8049 38.4474 13 34.9997 13ZM34.9997 14.3894C37.1129 14.3894 38.9149 15.7448 39.584 17.6315H37.2818L36.8042 16.6765C36.6367 16.3417 36.3003 16.1338 35.9261 16.1338C35.5519 16.1338 35.2153 16.3418 35.048 16.6765L34.5704 17.6315H30.4154C31.0846 15.7448 32.8864 14.3894 34.9997 14.3894ZM34.9997 24.1158C32.3181 24.1158 30.1366 21.9342 30.1366 19.2526C30.1366 19.175 30.1388 19.0979 30.1424 19.021H34.9997C35.2629 19.021 35.5035 18.8724 35.6211 18.637L35.926 18.0272L36.2309 18.637C36.3487 18.8724 36.5891 19.021 36.8524 19.021H39.8571C39.8607 19.0979 39.8629 19.175 39.8629 19.2526C39.8629 21.9342 37.6812 24.1158 34.9997 24.1158Z" fill="#FD5579"/>
<path d="M44.9578 34.308V30.3687C44.9578 27.9426 42.9839 25.9688 40.5578 25.9688H29.442C27.0159 25.9688 25.042 27.9426 25.042 30.3687V34.308C25.042 36.4957 26.4287 38.3651 28.3691 39.0845L26.4051 44.7407C26.24 45.2163 26.3157 45.7453 26.6075 46.1556C26.8994 46.5658 27.3742 46.8108 27.8778 46.8108H29.6735V54.4529C29.6735 55.8576 30.8162 57.0003 32.2209 57.0003C33.6255 57.0003 34.7682 55.8576 34.7682 54.4529V46.8109H35.2314V54.453C35.2314 55.8576 36.3742 57.0004 37.7788 57.0004C39.1834 57.0004 40.3261 55.8576 40.3261 54.453V46.8109H42.1219C42.6254 46.8109 43.1004 46.5659 43.3921 46.1556C43.684 45.7454 43.7597 45.2164 43.5945 44.7408L41.6307 39.0845C43.5711 38.3651 44.9578 36.4956 44.9578 34.308ZM26.4315 34.308V30.3687C26.4315 28.9479 27.4213 27.7546 28.7473 27.44V29.0243C28.7473 29.408 29.0584 29.719 29.442 29.719C29.8257 29.719 30.1367 29.4079 30.1367 29.0243V27.3582H39.8631V29.2233C39.3948 28.9227 38.8387 28.7476 38.2421 28.7476C36.8211 28.7476 35.6269 29.7372 35.3124 31.0634H33.6105C31.9505 31.0634 30.5999 32.414 30.5999 34.0739C30.5999 34.152 30.6038 34.229 30.6097 34.3055H30.1367V32.4084C30.1367 32.0247 29.8256 31.7137 29.442 31.7137C29.0583 31.7137 28.7473 32.0248 28.7473 32.4084V35.0004C28.7473 35.3841 29.0584 35.6951 29.442 35.6951H31.0757C31.5683 36.4628 32.3996 36.9929 33.3573 37.0731C33.2541 37.6066 32.7841 38.0109 32.221 38.0109H30.1343C28.0893 38.0109 26.4315 36.353 26.4315 34.308ZM39.8631 31.7583V33.1477C39.8631 33.7862 39.3437 34.3056 38.7052 34.3056C37.7174 34.3056 36.8598 34.8712 36.4374 35.6951H33.6105C32.7166 35.6951 31.9894 34.9678 31.9894 34.074C31.9894 33.1802 32.7167 32.453 33.6105 32.453H35.9262C36.31 32.453 36.621 32.1419 36.621 31.7583C36.621 30.8644 37.3482 30.1372 38.242 30.1372C39.1357 30.1372 39.8631 30.8644 39.8631 31.7583ZM33.3789 54.453C33.3789 55.0915 32.8595 55.6109 32.221 55.6109C31.5824 55.6109 31.063 55.0915 31.063 54.453V46.8109H33.3788V54.453H33.3789ZM38.9368 54.453C38.9368 55.0915 38.4174 55.6109 37.7789 55.6109C37.1404 55.6109 36.621 55.0915 36.621 54.453V46.8109H38.9367V54.453H38.9368ZM42.282 45.1965C42.3057 45.2647 42.2831 45.3177 42.2601 45.3502C42.2371 45.3827 42.1943 45.4215 42.1221 45.4215H27.8779C27.8057 45.4215 27.7629 45.3827 27.7399 45.3502C27.7169 45.3177 27.6943 45.2647 27.718 45.1965L29.7364 39.3833C29.868 39.3936 30.0003 39.4004 30.1345 39.4004H32.2211C33.5476 39.4004 34.64 38.381 34.7575 37.0846H36.169C36.2865 38.381 37.3788 39.4004 38.7054 39.4004H39.8657C39.9998 39.4004 40.1323 39.3935 40.2638 39.3833L42.282 45.1965ZM39.8655 38.0109H38.7052C38.0667 38.0109 37.5473 37.4915 37.5473 36.853C37.5473 36.2145 38.0667 35.6951 38.7052 35.6951C40.1098 35.6951 41.2526 34.5524 41.2526 33.1477V27.44C42.5786 27.7546 43.5683 28.9479 43.5683 30.3687V34.308C43.5683 36.3498 41.9072 38.0109 39.8655 38.0109Z" fill="#FD5579"/>
<circle cx="35" cy="35" r="34" stroke="#FD5579" stroke-width="2"/>
</svg>
