<svg width="70" height="70" viewBox="0 0 70 70" fill="none" xmlns="http://www.w3.org/2000/svg">
<circle cx="35" cy="35" r="34" stroke="#FD5579" stroke-width="2"/>
<path d="M31.25 22.5C31.1395 22.5 31.0335 22.5439 30.9554 22.622C30.8772 22.7002 30.8333 22.8062 30.8333 22.9167V29.5833C30.8333 29.9149 30.7016 30.2328 30.4672 30.4672C30.2328 30.7016 29.9149 30.8333 29.5833 30.8333H22.9167C22.8062 30.8333 22.7002 30.8772 22.622 30.9554C22.5439 31.0335 22.5 31.1395 22.5 31.25V38.75C22.5 38.98 22.6867 39.1667 22.9167 39.1667H29.5833C29.9149 39.1667 30.2328 39.2984 30.4672 39.5328C30.7016 39.7672 30.8333 40.0851 30.8333 40.4167V47.0833C30.8333 47.3133 31.02 47.5 31.25 47.5H38.75C38.8605 47.5 38.9665 47.4561 39.0446 47.378C39.1228 47.2998 39.1667 47.1938 39.1667 47.0833V40.4167C39.1667 40.0851 39.2984 39.7672 39.5328 39.5328C39.7672 39.2984 40.0851 39.1667 40.4167 39.1667H47.0833C47.1938 39.1667 47.2998 39.1228 47.378 39.0446C47.4561 38.9665 47.5 38.8605 47.5 38.75V31.25C47.5 31.1395 47.4561 31.0335 47.378 30.9554C47.2998 30.8772 47.1938 30.8333 47.0833 30.8333H40.4167C40.0851 30.8333 39.7672 30.7016 39.5328 30.4672C39.2984 30.2328 39.1667 29.9149 39.1667 29.5833V22.9167C39.1667 22.8062 39.1228 22.7002 39.0446 22.622C38.9665 22.5439 38.8605 22.5 38.75 22.5H31.25ZM28.3333 22.9167C28.3333 21.3067 29.64 20 31.25 20H38.75C40.36 20 41.6667 21.3067 41.6667 22.9167V28.3333H47.0833C48.6933 28.3333 50 29.64 50 31.25V38.75C50 39.5235 49.6927 40.2654 49.1457 40.8124C48.5987 41.3594 47.8569 41.6667 47.0833 41.6667H41.6667V47.0833C41.6667 47.8569 41.3594 48.5987 40.8124 49.1457C40.2654 49.6927 39.5235 50 38.75 50H31.25C30.4765 50 29.7346 49.6927 29.1876 49.1457C28.6406 48.5987 28.3333 47.8569 28.3333 47.0833V41.6667H22.9167C22.1431 41.6667 21.4013 41.3594 20.8543 40.8124C20.3073 40.2654 20 39.5235 20 38.75V31.25C20 29.64 21.3067 28.3333 22.9167 28.3333H28.3333V22.9167Z" fill="#FD5579"/>
</svg>
