<svg width="70" height="70" viewBox="0 0 70 70" fill="none" xmlns="http://www.w3.org/2000/svg">
<circle cx="35" cy="35" r="34" stroke="#FD5579" stroke-width="2"/>
<path d="M39.2853 38.0059L40.7153 41.0809C40.7153 41.0809 47.1437 42.4459 47.1437 45.6925C47.1437 47.9992 44.2837 47.9992 44.2837 47.9992H36.667L32.917 45.9159" stroke="#FD5579" stroke-width="3.125" stroke-linecap="round" stroke-linejoin="round"/>
<path d="M30.7148 38.0059L29.2864 41.0809C29.2864 41.0809 22.8564 42.4459 22.8564 45.6925C22.8564 47.9992 25.7164 47.9992 25.7164 47.9992H29.1664L32.9164 45.9159L37.4998 42.9992" stroke="#FD5579" stroke-width="3.125" stroke-linecap="round" stroke-linejoin="round"/>
<path d="M20 39.5437C20 39.5437 23.5717 38.7753 25.715 38.007C27.8567 27.2437 34.2833 28.012 35 28.012C35.715 28.012 42.1433 27.2437 44.285 38.007C46.4283 38.7737 50 39.5437 50 39.5437" stroke="#FD5579" stroke-width="3.125" stroke-linecap="round" stroke-linejoin="round"/>
<path d="M35.0003 24.6667C35.8844 24.6667 36.7322 24.3155 37.3573 23.6904C37.9825 23.0652 38.3337 22.2174 38.3337 21.3333C38.3337 20.4493 37.9825 19.6014 37.3573 18.9763C36.7322 18.3512 35.8844 18 35.0003 18C34.1163 18 33.2684 18.3512 32.6433 18.9763C32.0182 19.6014 31.667 20.4493 31.667 21.3333C31.667 22.2174 32.0182 23.0652 32.6433 23.6904C33.2684 24.3155 34.1163 24.6667 35.0003 24.6667Z" stroke="#FD5579" stroke-width="3.125" stroke-linecap="round" stroke-linejoin="round"/>
</svg>
