<svg width="70" height="70" viewBox="0 0 70 70" fill="none" xmlns="http://www.w3.org/2000/svg">
<circle cx="35" cy="35" r="34" stroke="#FD5579" stroke-width="2"/>
<path d="M12.8504 50.0617C12.3784 50.0617 12 49.6833 12 49.2113V28.797C12 28.3291 12.3784 27.9466 12.8504 27.9466C12.9806 27.9466 13.0986 27.9751 13.2085 28.028C15.2064 28.7482 17.0334 29.3586 18.7261 29.8713V21.5094C18.3314 21.367 17.9774 21.1392 17.6844 20.8462C17.1717 20.3335 16.8543 19.6214 16.8543 18.8402C16.8543 18.0589 17.1717 17.3509 17.6844 16.8382L17.6885 16.8341C18.2012 16.3174 18.9092 16 19.6904 16C20.4757 16 21.1838 16.3174 21.6965 16.8301C21.7168 16.8504 21.7371 16.8748 21.7575 16.8952C22.2376 17.4038 22.5306 18.0874 22.5306 18.8361C22.5306 19.6214 22.2132 20.3294 21.7005 20.8421C21.4076 21.1351 21.0535 21.363 20.6589 21.5054V30.4287C27.1245 32.2191 31.5028 32.4917 35.9299 32.1702V23.6131C35.5352 23.4707 35.1812 23.2428 34.8882 22.9499C34.8678 22.9295 34.8475 22.9092 34.8271 22.8848C34.347 22.3761 34.054 21.6925 34.054 20.9438C34.054 20.1626 34.3714 19.4546 34.8841 18.9378L34.8882 18.9338C35.4009 18.4211 36.1089 18.1037 36.8901 18.1037C37.6714 18.1037 38.3794 18.4211 38.8921 18.9338L38.8962 18.9378C39.4089 19.4505 39.7262 20.1585 39.7262 20.9438C39.7262 21.7292 39.4089 22.4372 38.8962 22.9499C38.8758 22.9702 38.8555 22.9906 38.8311 23.0109C38.5503 23.2754 38.2207 23.4788 37.8545 23.6131V31.9993C39.3804 31.8366 40.9469 31.625 42.6356 31.3931C45.606 30.9862 48.9548 30.5264 53.1255 30.2049V24.3577C52.7308 24.2153 52.3768 23.9875 52.0879 23.6945C51.5752 23.1818 51.2578 22.4697 51.2578 21.6885C51.2578 20.9072 51.5752 20.1992 52.0879 19.6865L52.092 19.6825C52.6047 19.1657 53.3127 18.8483 54.0939 18.8483C54.8752 18.8483 55.5832 19.1657 56.0959 19.6784L56.0999 19.6825C56.6126 20.1951 56.93 20.9032 56.93 21.6844C56.93 22.4697 56.6126 23.1777 56.0999 23.6904C56.0796 23.7108 56.0592 23.7311 56.0348 23.7515C55.7541 24.016 55.4245 24.2194 55.0583 24.3537V30.0666C56.9178 29.9526 58.932 29.8631 61.1333 29.8224C61.6012 29.8143 61.9878 30.1846 61.9959 30.6525V30.6688H62V49.2153C62 49.6833 61.6216 50.0658 61.1496 50.0658H12.8504V50.0617ZM20.3333 18.1973C20.1706 18.0345 19.9427 17.9328 19.6904 17.9328C19.4382 17.9328 19.2103 18.0345 19.0475 18.1932L19.0435 18.1973C18.8807 18.36 18.783 18.5879 18.783 18.8402C18.783 19.0924 18.8848 19.3203 19.0475 19.4831C19.2103 19.6458 19.4382 19.7435 19.6904 19.7435C19.9427 19.7435 20.1706 19.6418 20.3333 19.479C20.4961 19.3162 20.5978 19.0884 20.5978 18.8361C20.5978 18.6001 20.5124 18.3885 20.37 18.2298L20.3333 18.1973ZM20.6548 32.1906V32.5934C20.6548 34.4245 20.9233 34.1315 19.7108 35.4661C18.4453 34.1274 18.722 34.4326 18.722 32.5609V31.6372C17.1676 31.1733 15.5034 30.6322 13.6968 29.9933V48.3568H60.2992V31.5314C58.4193 31.5802 56.6777 31.6576 55.0542 31.7633V35.4417C55.0542 37.2728 55.3228 36.9798 54.1102 38.3145C52.8407 36.9757 53.1214 37.2809 53.1214 35.4092V31.8976C49.0565 32.215 45.7728 32.6667 42.8594 33.0654C41.0894 33.3096 39.4495 33.5334 37.8504 33.7002V34.693C37.8504 36.5241 38.119 36.2311 36.9064 37.5658C35.641 36.2271 35.9176 36.5322 35.9176 34.6605V33.867C31.4784 34.1966 27.0675 33.9321 20.6548 32.1906ZM54.7368 21.0415C54.5741 20.8787 54.3462 20.777 54.0939 20.777C53.8416 20.777 53.6138 20.8787 53.451 21.0415C53.2882 21.2043 53.1865 21.4321 53.1865 21.6844C53.1865 21.9367 53.2882 22.1646 53.451 22.3273C53.6138 22.4901 53.8416 22.5918 54.0939 22.5918C54.3299 22.5918 54.5415 22.5063 54.7043 22.3599L54.7368 22.3232C54.8996 22.1605 55.0013 21.9326 55.0013 21.6803C55.0013 21.4321 54.8996 21.2043 54.7368 21.0415ZM17.8065 39.6165C17.3711 39.4497 17.1514 38.9614 17.3182 38.526C17.485 38.0907 17.9733 37.8709 18.4087 38.0378C20.1991 38.7254 22.3923 39.2137 24.6424 39.5311C27.2791 39.9014 29.981 40.0316 32.2067 39.9624C32.6746 39.9502 33.0612 40.3164 33.0775 40.7843C33.0897 41.2523 32.7235 41.6388 32.2555 41.6551C29.9362 41.7243 27.1367 41.5941 24.4105 41.2116C22.0545 40.8779 19.7352 40.3571 17.8065 39.6165ZM37.5371 20.2969C37.3743 20.1341 37.1465 20.0324 36.8942 20.0324C36.6419 20.0324 36.4141 20.1341 36.2513 20.2969C36.0885 20.4596 35.9868 20.6875 35.9868 20.9398C35.9868 21.1758 36.0763 21.3874 36.2188 21.5501L36.2554 21.5827C36.4181 21.7454 36.646 21.8472 36.8983 21.8472C37.1343 21.8472 37.3459 21.7576 37.5086 21.6152L37.5412 21.5786C37.7039 21.4159 37.8057 21.188 37.8057 20.9357C37.8016 20.6916 37.6999 20.4637 37.5371 20.2969Z" fill="#FD5579"/>
</svg>
