<svg width="70" height="70" viewBox="0 0 70 70" fill="none" xmlns="http://www.w3.org/2000/svg">
<circle cx="35" cy="35" r="34" stroke="#FD5579" stroke-width="2"/>
<mask id="path-2-inside-1_1169_6661" fill="white">
<path d="M39.5695 40.9541C39.8343 42.6927 40.1569 44.4161 40.3389 46.1623C40.4795 47.5044 40.5705 48.877 40.4381 50.2191C40.1817 52.8499 38.1715 54.4208 34.995 54.68C32.1162 54.9164 29.7421 53.5591 29.0721 51.096C28.5261 49.0753 28.2283 47.0011 27.8147 44.9422C27.7568 44.6296 27.6906 44.3169 27.3597 43.9509C27.1777 44.3093 26.9544 44.6601 26.8303 45.0414C25.8707 47.9467 24.9194 50.8596 23.9846 53.7726C23.7944 54.375 23.5793 54.7487 22.7603 54.5351C19.8154 53.7726 16.8539 53.0558 13.909 52.3161C13.727 52.2704 13.5699 52.1483 13.2969 52.0111C13.4871 51.6146 13.6526 51.2562 13.8346 50.9054C14.9265 48.8694 15.9605 46.8029 17.1517 44.8202C18.467 42.6317 18.8889 40.3059 18.9799 37.8505C19.0626 35.8068 19.2446 33.748 19.6831 31.7501C20.4606 28.2423 22.6114 25.8632 26.8303 25.459C26.8303 24.2618 26.7724 23.0875 26.8551 21.9284C26.9047 21.204 27.0867 20.4795 27.3349 19.7856C27.6989 18.7485 28.493 18.1385 29.709 18.1843C30.6851 15.4467 31.0739 15.1264 33.4398 15.1417C34.0685 13.9902 35.0198 13.2277 36.6081 13.403C36.8066 13.4259 37.0382 13.1209 37.2699 13.0141C37.7993 12.7778 38.3866 12.3202 38.8664 12.4041C40.0907 12.6176 40.9676 12.1982 41.9933 11.6797C43.9042 10.7036 46.1543 11.6873 46.4355 13.6776C46.6175 14.9739 46.4107 16.3846 46.0633 17.6657C45.4594 19.9229 45.9474 22.1114 46.1873 24.3228C46.2039 24.4829 46.3528 24.6507 46.4851 24.7651C48.9999 26.9307 49.8106 29.7979 50.2325 32.7719C50.5716 35.1663 50.5055 37.6141 50.9273 39.9933C51.2169 41.6251 51.9035 43.2341 52.6314 44.7592C53.6903 46.9706 54.9477 49.0981 56.114 51.2638C56.3043 51.6146 56.4532 51.9806 56.6931 52.4839C55.1296 52.8041 53.7151 53.1015 52.3005 53.3913C50.4393 53.765 48.5697 54.1081 46.7085 54.5123C45.8647 54.6953 45.4346 54.5656 45.1947 53.6963C44.475 51.0732 43.5816 48.4805 42.8867 45.8497C42.3738 43.8975 41.1495 42.3724 39.8508 40.8626C39.7681 40.8931 39.6688 40.9236 39.5695 40.9541ZM27.7237 33.2828C28.1042 32.8329 28.4434 32.4974 28.7081 32.1161C29.6594 30.7664 30.5776 29.3861 31.5372 28.0441C32.3727 26.885 33.2082 26.5418 34.3249 26.9002C35.5823 27.3044 35.7478 28.2881 35.6981 29.3251C35.6154 31.0638 34.5069 32.3754 33.5556 33.7785C32.7036 35.0367 31.8763 36.3635 31.4131 37.7666C30.8258 39.551 30.0895 41.2057 28.7991 42.6469C28.5674 42.8986 28.3441 43.3104 28.3937 43.6001C28.7908 45.9488 29.1465 48.3127 29.7173 50.6309C30.3294 53.1397 32.2817 54.2225 35.2845 53.948C37.9482 53.704 39.6605 52.1941 39.735 49.7463C39.7846 48.1068 39.4951 46.4673 39.3958 44.8202C39.2056 41.6099 38.825 38.3919 38.9243 35.1892C39.007 32.5126 38.9739 30.0419 36.9886 27.8458C35.8884 26.6257 35.2018 25.154 35.4086 23.4687C35.5079 22.6376 35.8388 21.9741 36.7901 21.7454C37.7579 21.509 38.6513 21.6462 39.2056 22.4774C40.3306 24.1627 41.3977 25.8784 42.4814 27.5789C42.8123 28.0974 43.1266 28.6236 43.5237 29.287C44.5991 27.8 45.3684 26.3741 45.3932 24.7803C45.4511 21.4175 43.8215 18.7333 39.5447 18.9468C31.2311 19.351 26.4249 24.5134 27.7237 33.2828ZM46.0798 53.9098C49.2812 53.2769 52.3998 52.6593 55.6922 52.0035C54.319 49.4794 52.8796 47.1536 51.7877 44.6982C50.9522 42.83 50.4641 40.8092 50.0257 38.8189C49.7527 37.576 49.8933 36.2568 49.7858 34.9833C49.5707 32.261 49.0661 29.5997 47.6019 27.1747C47.2379 26.58 46.7333 26.0614 46.1791 25.3599C45.5917 27.3425 44.9465 28.9591 43.4575 30.4308C42.9612 29.6835 42.5724 29.104 42.2001 28.5168C41.0668 26.7096 39.9335 24.9023 38.8085 23.0951C38.3866 22.424 37.6752 22.1266 37.0051 22.4774C36.575 22.7062 36.1035 23.4535 36.2027 23.85C36.5088 25.0701 36.7983 26.4351 37.6007 27.373C39.7102 29.8361 40.0328 32.5431 39.5944 35.4713C39.2635 37.6751 39.8012 39.612 41.2654 41.465C42.2911 42.769 43.0522 44.3093 43.6064 45.842C44.5494 48.4576 45.2526 51.1647 46.0798 53.9098ZM14.2647 51.6832C17.2676 52.4305 20.1877 53.1549 23.1574 53.887C24.1666 50.8215 25.0931 47.8781 26.1106 44.9499C26.3422 44.2941 26.7641 43.6306 27.2852 43.1274C28.9232 41.5641 30.0234 39.7874 30.6686 37.6675C31.107 36.2263 32.0087 34.8918 32.778 33.5421C33.3074 32.6041 34.0685 31.7729 34.5317 30.8197C34.8461 30.1792 34.9619 29.4014 34.904 28.6999C34.8709 28.2957 34.4077 27.6704 34.0189 27.5865C33.5639 27.4874 32.9021 27.7619 32.472 28.0517C32.0832 28.3186 31.8764 28.8142 31.5868 29.2108C30.6272 30.5605 29.7173 31.9331 28.6915 33.237C28.4185 33.5878 27.8147 33.7174 27.3597 33.9462C27.1694 33.5344 26.8137 33.1227 26.8137 32.7109C26.822 31.0256 26.9544 29.348 27.0205 27.6628C27.0371 27.1747 26.9792 26.6867 26.9544 26.2063C23.7944 26.3969 21.5774 27.9068 20.7502 30.8731C20.1132 33.1532 19.8733 35.5552 19.741 37.9115C19.6003 40.4432 19.195 42.83 17.8549 45.0871C16.5975 47.1994 15.5056 49.3955 14.2647 51.6832ZM40.9427 18.0012C42.3738 18.7333 43.6891 19.412 44.8721 20.022C45.1202 18.9316 45.4677 17.7038 45.6496 16.4456C45.7903 15.5229 45.8068 14.5545 45.6993 13.6318C45.6 12.8235 44.9879 12.122 44.0614 12.1448C43.2093 12.1601 42.3656 12.5185 41.5383 12.7701C41.406 12.8159 41.2405 13.1819 41.3067 13.3115C42.1753 14.9739 41.4556 16.5219 40.9427 18.0012ZM37.9151 18.3063C38.4611 18.2453 39.3296 18.352 39.9666 18.0394C40.8517 17.6123 41.3398 14.341 40.6036 13.7309C40.1072 13.3192 39.2138 13.22 38.4942 13.1972C38.1964 13.1895 37.609 13.7309 37.609 14.0207C37.6173 15.4009 37.791 16.7888 37.9151 18.3063ZM34.7468 19.3281C35.4748 18.8477 36.4344 18.5274 36.7818 17.9174C37.1954 17.1929 37.1375 16.2169 37.1623 15.3476C37.1871 14.5545 36.8149 13.975 35.7891 14.1046C34.9205 14.2114 34.1016 15.0807 34.2009 15.7746C34.3663 16.8345 34.5317 17.9097 34.7468 19.3281ZM31.4131 20.632C33.6466 19.6712 34.1347 18.9163 33.8038 16.8879C33.6383 15.8966 32.8856 15.5229 31.9012 15.9576C31.016 16.3465 30.3708 17.864 30.71 18.718C30.9581 19.3281 31.1649 19.9457 31.4131 20.632ZM27.459 24.9633C27.5417 24.9557 27.6244 24.9481 27.7071 24.9405C28.3855 24.0483 28.9728 23.0722 29.7752 22.2868C30.5859 21.5014 30.5445 20.6397 30.3873 19.7475C30.3294 19.4501 29.982 19.0307 29.6925 18.9773C29.3368 18.9087 28.7825 19.0536 28.5426 19.2976C28.1952 19.656 27.9057 20.1745 27.8395 20.6473C27.6492 22.0809 27.5748 23.5297 27.459 24.9633Z"/>
</mask>
<path d="M39.5695 40.9541C39.8343 42.6927 40.1569 44.4161 40.3389 46.1623C40.4795 47.5044 40.5705 48.877 40.4381 50.2191C40.1817 52.8499 38.1715 54.4208 34.995 54.68C32.1162 54.9164 29.7421 53.5591 29.0721 51.096C28.5261 49.0753 28.2283 47.0011 27.8147 44.9422C27.7568 44.6296 27.6906 44.3169 27.3597 43.9509C27.1777 44.3093 26.9544 44.6601 26.8303 45.0414C25.8707 47.9467 24.9194 50.8596 23.9846 53.7726C23.7944 54.375 23.5793 54.7487 22.7603 54.5351C19.8154 53.7726 16.8539 53.0558 13.909 52.3161C13.727 52.2704 13.5699 52.1483 13.2969 52.0111C13.4871 51.6146 13.6526 51.2562 13.8346 50.9054C14.9265 48.8694 15.9605 46.8029 17.1517 44.8202C18.467 42.6317 18.8889 40.3059 18.9799 37.8505C19.0626 35.8068 19.2446 33.748 19.6831 31.7501C20.4606 28.2423 22.6114 25.8632 26.8303 25.459C26.8303 24.2618 26.7724 23.0875 26.8551 21.9284C26.9047 21.204 27.0867 20.4795 27.3349 19.7856C27.6989 18.7485 28.493 18.1385 29.709 18.1843C30.6851 15.4467 31.0739 15.1264 33.4398 15.1417C34.0685 13.9902 35.0198 13.2277 36.6081 13.403C36.8066 13.4259 37.0382 13.1209 37.2699 13.0141C37.7993 12.7778 38.3866 12.3202 38.8664 12.4041C40.0907 12.6176 40.9676 12.1982 41.9933 11.6797C43.9042 10.7036 46.1543 11.6873 46.4355 13.6776C46.6175 14.9739 46.4107 16.3846 46.0633 17.6657C45.4594 19.9229 45.9474 22.1114 46.1873 24.3228C46.2039 24.4829 46.3528 24.6507 46.4851 24.7651C48.9999 26.9307 49.8106 29.7979 50.2325 32.7719C50.5716 35.1663 50.5055 37.6141 50.9273 39.9933C51.2169 41.6251 51.9035 43.2341 52.6314 44.7592C53.6903 46.9706 54.9477 49.0981 56.114 51.2638C56.3043 51.6146 56.4532 51.9806 56.6931 52.4839C55.1296 52.8041 53.7151 53.1015 52.3005 53.3913C50.4393 53.765 48.5697 54.1081 46.7085 54.5123C45.8647 54.6953 45.4346 54.5656 45.1947 53.6963C44.475 51.0732 43.5816 48.4805 42.8867 45.8497C42.3738 43.8975 41.1495 42.3724 39.8508 40.8626C39.7681 40.8931 39.6688 40.9236 39.5695 40.9541ZM27.7237 33.2828C28.1042 32.8329 28.4434 32.4974 28.7081 32.1161C29.6594 30.7664 30.5776 29.3861 31.5372 28.0441C32.3727 26.885 33.2082 26.5418 34.3249 26.9002C35.5823 27.3044 35.7478 28.2881 35.6981 29.3251C35.6154 31.0638 34.5069 32.3754 33.5556 33.7785C32.7036 35.0367 31.8763 36.3635 31.4131 37.7666C30.8258 39.551 30.0895 41.2057 28.7991 42.6469C28.5674 42.8986 28.3441 43.3104 28.3937 43.6001C28.7908 45.9488 29.1465 48.3127 29.7173 50.6309C30.3294 53.1397 32.2817 54.2225 35.2845 53.948C37.9482 53.704 39.6605 52.1941 39.735 49.7463C39.7846 48.1068 39.4951 46.4673 39.3958 44.8202C39.2056 41.6099 38.825 38.3919 38.9243 35.1892C39.007 32.5126 38.9739 30.0419 36.9886 27.8458C35.8884 26.6257 35.2018 25.154 35.4086 23.4687C35.5079 22.6376 35.8388 21.9741 36.7901 21.7454C37.7579 21.509 38.6513 21.6462 39.2056 22.4774C40.3306 24.1627 41.3977 25.8784 42.4814 27.5789C42.8123 28.0974 43.1266 28.6236 43.5237 29.287C44.5991 27.8 45.3684 26.3741 45.3932 24.7803C45.4511 21.4175 43.8215 18.7333 39.5447 18.9468C31.2311 19.351 26.4249 24.5134 27.7237 33.2828ZM46.0798 53.9098C49.2812 53.2769 52.3998 52.6593 55.6922 52.0035C54.319 49.4794 52.8796 47.1536 51.7877 44.6982C50.9522 42.83 50.4641 40.8092 50.0257 38.8189C49.7527 37.576 49.8933 36.2568 49.7858 34.9833C49.5707 32.261 49.0661 29.5997 47.6019 27.1747C47.2379 26.58 46.7333 26.0614 46.1791 25.3599C45.5917 27.3425 44.9465 28.9591 43.4575 30.4308C42.9612 29.6835 42.5724 29.104 42.2001 28.5168C41.0668 26.7096 39.9335 24.9023 38.8085 23.0951C38.3866 22.424 37.6752 22.1266 37.0051 22.4774C36.575 22.7062 36.1035 23.4535 36.2027 23.85C36.5088 25.0701 36.7983 26.4351 37.6007 27.373C39.7102 29.8361 40.0328 32.5431 39.5944 35.4713C39.2635 37.6751 39.8012 39.612 41.2654 41.465C42.2911 42.769 43.0522 44.3093 43.6064 45.842C44.5494 48.4576 45.2526 51.1647 46.0798 53.9098ZM14.2647 51.6832C17.2676 52.4305 20.1877 53.1549 23.1574 53.887C24.1666 50.8215 25.0931 47.8781 26.1106 44.9499C26.3422 44.2941 26.7641 43.6306 27.2852 43.1274C28.9232 41.5641 30.0234 39.7874 30.6686 37.6675C31.107 36.2263 32.0087 34.8918 32.778 33.5421C33.3074 32.6041 34.0685 31.7729 34.5317 30.8197C34.8461 30.1792 34.9619 29.4014 34.904 28.6999C34.8709 28.2957 34.4077 27.6704 34.0189 27.5865C33.5639 27.4874 32.9021 27.7619 32.472 28.0517C32.0832 28.3186 31.8764 28.8142 31.5868 29.2108C30.6272 30.5605 29.7173 31.9331 28.6915 33.237C28.4185 33.5878 27.8147 33.7174 27.3597 33.9462C27.1694 33.5344 26.8137 33.1227 26.8137 32.7109C26.822 31.0256 26.9544 29.348 27.0205 27.6628C27.0371 27.1747 26.9792 26.6867 26.9544 26.2063C23.7944 26.3969 21.5774 27.9068 20.7502 30.8731C20.1132 33.1532 19.8733 35.5552 19.741 37.9115C19.6003 40.4432 19.195 42.83 17.8549 45.0871C16.5975 47.1994 15.5056 49.3955 14.2647 51.6832ZM40.9427 18.0012C42.3738 18.7333 43.6891 19.412 44.8721 20.022C45.1202 18.9316 45.4677 17.7038 45.6496 16.4456C45.7903 15.5229 45.8068 14.5545 45.6993 13.6318C45.6 12.8235 44.9879 12.122 44.0614 12.1448C43.2093 12.1601 42.3656 12.5185 41.5383 12.7701C41.406 12.8159 41.2405 13.1819 41.3067 13.3115C42.1753 14.9739 41.4556 16.5219 40.9427 18.0012ZM37.9151 18.3063C38.4611 18.2453 39.3296 18.352 39.9666 18.0394C40.8517 17.6123 41.3398 14.341 40.6036 13.7309C40.1072 13.3192 39.2138 13.22 38.4942 13.1972C38.1964 13.1895 37.609 13.7309 37.609 14.0207C37.6173 15.4009 37.791 16.7888 37.9151 18.3063ZM34.7468 19.3281C35.4748 18.8477 36.4344 18.5274 36.7818 17.9174C37.1954 17.1929 37.1375 16.2169 37.1623 15.3476C37.1871 14.5545 36.8149 13.975 35.7891 14.1046C34.9205 14.2114 34.1016 15.0807 34.2009 15.7746C34.3663 16.8345 34.5317 17.9097 34.7468 19.3281ZM31.4131 20.632C33.6466 19.6712 34.1347 18.9163 33.8038 16.8879C33.6383 15.8966 32.8856 15.5229 31.9012 15.9576C31.016 16.3465 30.3708 17.864 30.71 18.718C30.9581 19.3281 31.1649 19.9457 31.4131 20.632ZM27.459 24.9633C27.5417 24.9557 27.6244 24.9481 27.7071 24.9405C28.3855 24.0483 28.9728 23.0722 29.7752 22.2868C30.5859 21.5014 30.5445 20.6397 30.3873 19.7475C30.3294 19.4501 29.982 19.0307 29.6925 18.9773C29.3368 18.9087 28.7825 19.0536 28.5426 19.2976C28.1952 19.656 27.9057 20.1745 27.8395 20.6473C27.6492 22.0809 27.5748 23.5297 27.459 24.9633Z" fill="#0099FF" stroke="#FD5579" mask="url(#path-2-inside-1_1169_6661)"/>
<path d="M42.701 27.4375C42.8891 27.7323 43.0726 28.0375 43.2691 28.3645C43.3589 28.5138 43.4513 28.6676 43.5483 28.8271C44.4963 27.4709 45.13 26.1777 45.1519 24.7693L45.152 24.7682C45.1843 23.1276 44.7989 21.6857 43.9184 20.6831C43.0447 19.6881 41.6478 19.0854 39.5659 19.1893L39.5658 19.1893C35.4521 19.3929 32.2437 20.7681 30.2213 23.1396C28.2858 25.409 27.4052 28.6276 27.8982 32.7027C27.9089 32.6907 27.9195 32.6787 27.93 32.6669C28.1506 32.4184 28.3422 32.2025 28.513 31.9641C28.9128 31.3968 29.3091 30.8185 29.7066 30.2385C30.2456 29.4519 30.787 28.6619 31.3427 27.8912M42.701 27.4375C42.7011 27.4376 42.7011 27.4377 42.7012 27.4378L42.4901 27.5717L42.7008 27.4372C42.7009 27.4373 42.701 27.4374 42.701 27.4375ZM42.701 27.4375C42.4777 27.0855 42.2548 26.7328 42.0319 26.38C41.175 25.0237 40.3166 23.6652 39.4221 22.3313M39.4221 22.3313C39.111 21.8648 38.6977 21.5862 38.2252 21.4621C37.7588 21.3396 37.249 21.3709 36.7395 21.4953L36.7385 21.4956C36.2119 21.6264 35.8379 21.8821 35.5854 22.2339C35.3374 22.5796 35.2215 22.9977 35.1692 23.4311M39.4221 22.3313C39.4222 22.3314 39.4222 22.3314 39.4223 22.3315L39.2143 22.4702M39.4221 22.3313C39.422 22.3312 39.422 22.3311 39.4219 22.331L39.2143 22.4702M35.1692 23.4311C34.9509 25.2098 35.6797 26.7507 36.8116 28.006L36.8119 28.0063C38.7241 30.1215 38.7741 32.4973 38.6832 35.1735L38.6831 35.1742C38.6101 37.5297 38.791 39.899 38.9707 42.2517C39.0365 43.1132 39.1021 43.9725 39.155 44.8281M35.1692 23.4311L35.4173 23.4616M35.1692 23.4311C35.1691 23.4313 35.1691 23.4315 35.1691 23.4316L35.4173 23.4616M39.155 44.8281C39.155 44.8282 39.155 44.8284 39.155 44.8285L39.4045 44.813L39.155 44.8281ZM39.155 44.8281C39.191 45.4221 39.2519 46.0196 39.3123 46.6113C39.3358 46.8419 39.3593 47.0716 39.3811 47.2999C39.4594 48.1189 39.5181 48.9279 39.4938 49.7315C39.4584 50.8952 39.0381 51.819 38.3225 52.4831C37.6033 53.1505 36.5663 53.5735 35.2705 53.6918C33.8003 53.8262 32.6192 53.625 31.7394 53.1102C30.8664 52.5994 30.2614 51.7632 29.9689 50.5644L29.9688 50.5639C29.4945 48.6377 29.1696 46.6804 28.8434 44.7157C28.7791 44.3279 28.7146 43.9398 28.649 43.5517C28.6362 43.4747 28.6571 43.354 28.7265 43.2043C28.7933 43.0599 28.892 42.9174 28.9917 42.8091L28.9917 42.8091L28.994 42.8065C30.3175 41.3284 31.0671 39.6365 31.6592 37.8377C32.1108 36.4702 32.9204 35.168 33.7712 33.9116C33.9026 33.7178 34.039 33.5231 34.1765 33.3268C34.5262 32.8277 34.8826 32.3189 35.1791 31.7932C35.5968 31.0525 35.9127 30.2514 35.9566 29.3298M35.9566 29.3298C35.9566 29.3299 35.9566 29.3299 35.9566 29.3299L35.7068 29.318L35.9566 29.3298ZM35.9566 29.3298C35.9819 28.8008 35.9556 28.2468 35.7382 27.7653C35.5143 27.2692 35.1001 26.8768 34.4101 26.655L34.4095 26.6548C33.8057 26.4625 33.2531 26.4512 32.7332 26.6646C32.2199 26.8753 31.7706 27.2918 31.3427 27.8912M31.3427 27.8912C31.3426 27.8913 31.3425 27.8915 31.3424 27.8916L31.5459 28.0369L31.3431 27.8906C31.343 27.8908 31.3429 27.891 31.3427 27.8912ZM35.4173 23.4616C35.5166 22.638 35.8475 21.9746 36.7988 21.7382M35.4173 23.4616C35.2105 25.1468 35.8971 26.6185 36.9973 27.8386C38.9826 30.0348 39.024 32.5054 38.933 35.182L36.7988 21.7382M36.7988 21.7382C37.7666 21.5018 38.66 21.6391 39.2143 22.4702M36.7988 21.7382L39.2143 22.4702" fill="white" stroke="#FD5579" stroke-width="0.5"/>
<path d="M41.445 41.3032L41.4445 41.3026C40.0279 39.4997 39.5042 37.6313 39.8241 35.5007C40.2776 32.5272 39.9531 29.738 37.773 27.2023C37.074 26.3851 36.7839 25.2156 36.4968 24.0586C36.4738 23.966 36.4509 23.8735 36.4278 23.7813C36.4178 23.7414 36.4179 23.6686 36.4486 23.5611C36.4783 23.4573 36.5312 23.3397 36.6022 23.2216C36.748 22.979 36.9442 22.7757 37.1051 22.6902L37.1051 22.6902L37.1056 22.6899C37.3779 22.5442 37.6493 22.5342 37.8969 22.6243C38.1492 22.7161 38.3915 22.918 38.5787 23.2191L38.5788 23.2192C39.7039 25.0267 40.8375 26.842 41.9711 28.6421L41.9715 28.6427C42.1935 28.9929 42.4262 29.3432 42.6802 29.7257C42.8528 29.9855 43.0351 30.2601 43.2307 30.5596L43.3981 30.8158L43.6158 30.6007C45.0329 29.2 45.7042 27.6721 46.2642 25.8746C46.3508 25.9787 46.4356 26.0792 46.5177 26.1763C46.6 26.2737 46.6794 26.3678 46.755 26.459C46.995 26.7482 47.2021 27.0147 47.3699 27.2951L47.3699 27.2951L47.3709 27.2968C48.8133 29.6647 49.3051 32.2875 49.5191 34.9948C49.5543 35.45 49.5587 35.9054 49.5631 36.3698C49.5648 36.5491 49.5665 36.7298 49.57 36.9123C49.5825 37.5594 49.6179 38.2185 49.7642 38.8654C50.2029 40.8568 50.7035 42.8987 51.5416 44.7915L51.5417 44.7918C52.3139 46.5281 53.2617 48.2055 54.2309 49.9209C54.5845 50.5466 54.9409 51.1774 55.2927 51.8179C52.2216 52.4405 49.2755 53.0242 46.2531 53.6203C46.0407 52.9106 45.8354 52.2015 45.6307 51.4946C45.0685 49.5527 44.511 47.6272 43.8239 45.7486C43.2632 44.1983 42.4826 42.633 41.445 41.3032Z" fill="white" stroke="#FD5579" stroke-width="0.5"/>
<path d="M14.6382 51.5172C14.9494 50.9366 15.2521 50.3632 15.5514 49.7964C16.3825 48.2222 17.1868 46.6989 18.0706 45.2141L18.0707 45.2139C19.4406 42.9066 19.8499 40.4732 19.9915 37.9246L14.6382 51.5172ZM14.6382 51.5172C17.4627 52.2182 20.2116 52.9005 23.0013 53.602C23.2153 52.9456 23.4266 52.294 23.6366 51.6465C24.3809 49.3511 25.1084 47.1073 25.8837 44.882L25.8837 44.8818C26.1281 44.1818 26.5714 43.4844 27.1218 42.9609C28.7296 41.4188 29.8063 39.6865 30.4386 37.6091C30.7939 36.4412 31.448 35.3371 32.0797 34.2708C32.2467 33.989 32.4121 33.7097 32.57 33.4327C32.811 33.0092 33.0968 32.6045 33.3743 32.2117C33.4102 32.1609 33.4459 32.1104 33.4813 32.06C33.7945 31.615 34.0901 31.1814 34.3163 30.7243C34.5995 30.1382 34.7108 29.3989 34.6639 28.7333C34.6524 28.5953 34.5596 28.3845 34.4068 28.1883C34.2505 27.9877 34.0837 27.8688 33.9756 27.8454C33.8073 27.8094 33.5782 27.8385 33.3218 27.9246C33.0704 28.0091 32.8195 28.1395 32.6208 28.2734L32.6206 28.2736C32.4635 28.3792 32.3345 28.5367 32.2038 28.7347C32.1492 28.8175 32.0971 28.9027 32.0425 28.9922C32.0319 29.0096 32.0212 29.0271 32.0103 29.0448C31.945 29.1516 31.8755 29.2632 31.7999 29.3698L31.7997 29.37C31.5282 29.752 31.2594 30.1376 30.99 30.524C30.314 31.4939 29.6342 32.4691 28.8972 33.406C28.719 33.6343 28.4483 33.7746 28.2024 33.8812C28.1063 33.9228 28.0057 33.9626 27.9096 34.0006C27.8803 34.0122 27.8514 34.0236 27.8231 34.0348C27.6993 34.0843 27.5847 34.1319 27.4812 34.184L27.2503 34.3L27.1419 34.0655C27.0857 33.9438 27.0205 33.8336 26.9489 33.7126C26.9034 33.6357 26.8553 33.5544 26.8052 33.463C26.6896 33.2517 26.5729 32.9983 26.5729 32.7253V32.7228H26.5729C26.5837 31.624 26.6403 30.5231 26.6966 29.4274C26.7268 28.8391 26.7569 28.2522 26.7799 27.668C26.7909 27.3422 26.7679 27.0244 26.744 26.6943C26.739 26.626 26.734 26.5572 26.7293 26.4876C25.2937 26.6052 24.0821 27.0102 23.1298 27.7047C22.1255 28.4372 21.3921 29.5043 20.9919 30.9394L20.9919 30.9395C20.3623 33.1932 20.1235 35.5661 19.9915 37.9245L14.6382 51.5172Z" fill="white" stroke="#FD5579" stroke-width="0.5"/>
<path d="M44.883 18.8879C44.8201 19.1468 44.758 19.4021 44.6998 19.653C43.6472 19.1158 42.4942 18.521 41.2514 17.8788C41.2799 17.7991 41.3089 17.7187 41.3381 17.6376C41.8161 16.3125 42.3577 14.8109 41.5435 13.2162C41.5436 13.2151 41.5438 13.2139 41.544 13.2127C41.5482 13.1855 41.5595 13.1466 41.578 13.1039C41.5965 13.0614 41.6179 13.0249 41.6364 13.0006C41.6392 12.9969 41.6417 12.9938 41.6439 12.9913C41.81 12.9389 41.9739 12.8843 42.1359 12.8304C42.8004 12.6092 43.4335 12.3984 44.0663 12.3869C44.84 12.3743 45.3649 12.9544 45.4518 13.662L45.4518 13.6624C45.5645 14.568 45.5406 15.5057 45.4031 16.4077L45.4029 16.4094C45.2794 17.2577 45.077 18.0902 44.883 18.8879Z" fill="white" stroke="#FD5579" stroke-width="0.5"/>
<path d="M38.3711 18.032C38.2948 18.0338 38.2187 18.0359 38.1443 18.0393C38.1148 17.6966 38.0835 17.3616 38.0527 17.0322C37.9555 15.9921 37.8635 15.0087 37.8516 14.0209C37.8516 14.0208 37.8516 14.0207 37.8516 14.0206C37.8524 14.0165 37.8596 13.9786 37.9073 13.9057C37.9535 13.8348 38.0219 13.7556 38.1024 13.6809C38.1828 13.6064 38.2683 13.543 38.3448 13.5003C38.3829 13.479 38.4154 13.4647 38.4412 13.4562C38.4539 13.452 38.4637 13.4496 38.4708 13.4484C38.4758 13.4475 38.4788 13.4473 38.4799 13.4473C38.8375 13.4624 39.2234 13.4941 39.5766 13.5687C39.9342 13.6443 40.2341 13.7591 40.4373 13.9242C40.4833 13.9627 40.5357 14.0362 40.5822 14.161C40.6282 14.2843 40.6627 14.442 40.6832 14.628C40.7242 14.9999 40.7064 15.4563 40.6384 15.9144C40.5703 16.3723 40.454 16.8188 40.3052 17.1717C40.2309 17.3481 40.1509 17.4952 40.0691 17.607C39.9862 17.7203 39.9107 17.7847 39.8494 17.8149C39.5811 17.9449 39.2478 17.9944 38.8921 18.0149C38.7441 18.0234 38.5983 18.0268 38.4544 18.03C38.4265 18.0307 38.3988 18.0313 38.3711 18.032Z" fill="white" stroke="#FD5579" stroke-width="0.5"/>
<path d="M36.921 15.3314L36.9209 15.3322C36.9172 15.4628 36.9151 15.5927 36.913 15.7219C36.908 16.0372 36.903 16.3484 36.8743 16.6553C36.8344 17.0833 36.7503 17.4682 36.5726 17.7862C36.4301 18.0361 36.154 18.2443 35.783 18.4591C35.6412 18.5412 35.4934 18.6201 35.3403 18.7018C35.2957 18.7256 35.2506 18.7496 35.2051 18.7741C35.1167 18.8216 35.0272 18.8703 34.9382 18.9206C34.9017 18.6803 34.8666 18.4498 34.8328 18.2273C34.692 17.3018 34.5722 16.5142 34.4568 15.7305C34.4225 15.4895 34.5483 15.1718 34.822 14.8831C35.0907 14.5997 35.4616 14.3896 35.8278 14.3445C36.2871 14.2895 36.5474 14.3975 36.695 14.5509C36.8493 14.7112 36.9322 14.9743 36.921 15.3314Z" fill="white" stroke="#FD5579" stroke-width="0.5"/>
<path d="M30.9424 18.6268L30.9421 18.626C30.8069 18.2855 30.8574 17.7683 31.073 17.2649C31.2876 16.7635 31.6345 16.3497 32.0022 16.1864C32.4528 15.9875 32.808 15.9909 33.0531 16.1102C33.2928 16.2268 33.4869 16.4838 33.5566 16.927L33.5566 16.927L33.5569 16.9285C33.7197 17.9229 33.6677 18.5402 33.3592 19.0231C33.0673 19.48 32.5187 19.8619 31.5573 20.2956C31.5309 20.222 31.5047 20.149 31.4787 20.0767C31.2981 19.5731 31.1274 19.0972 30.9424 18.6268ZM30.7098 18.7183C30.3706 17.8642 31.0076 16.3543 31.901 15.9578L31.328 20.3966C31.2992 20.3165 31.2707 20.2372 31.2425 20.1586C31.0622 19.6559 30.8932 19.1848 30.7098 18.7183Z" fill="white" stroke="#FD5579" stroke-width="0.5"/>
<path d="M28.0918 23.9973C27.9764 24.1598 27.8621 24.3209 27.7474 24.4786C27.762 24.285 27.7761 24.0918 27.7902 23.8989C27.8693 22.8192 27.9476 21.7499 28.0954 20.6823L28.0954 20.6821C28.1527 20.2667 28.4102 19.8029 28.7297 19.473C28.8067 19.395 28.9577 19.3141 29.1482 19.2621C29.3368 19.2106 29.524 19.1985 29.6534 19.2235L29.6541 19.2236C29.7129 19.2347 29.8258 19.3026 29.9446 19.4371C30.0591 19.5667 30.1323 19.7059 30.15 19.7949C30.2312 20.237 30.2739 20.6396 30.2092 21.0187C30.1458 21.3898 29.9772 21.7517 29.6095 22.1079L29.6095 22.1079L29.6086 22.1088C29.0306 22.6746 28.5531 23.3473 28.0918 23.9973Z" fill="white" stroke="#FD5579" stroke-width="0.5"/>
</svg>
