<svg width="70" height="70" viewBox="0 0 70 70" fill="none" xmlns="http://www.w3.org/2000/svg">
<circle cx="35" cy="35" r="34" stroke="#FD5579" stroke-width="2"/>
<path fill-rule="evenodd" clip-rule="evenodd" d="M27.2917 22.0236C27.2917 20.9619 28.2633 20.1861 29.2858 20.3819C33.6175 21.2102 36.3817 21.2202 40.7108 20.3844C41.7333 20.1869 42.7083 20.9627 42.7083 22.0261V22.3711H43.3333C43.7754 22.3711 44.1993 22.5467 44.5118 22.8592C44.8244 23.1718 45 23.5957 45 24.0377V25.3111C45 25.7531 44.8244 26.177 44.5118 26.4896C44.1993 26.8021 43.7754 26.9777 43.3333 26.9777H42.7083V27.7094C42.7088 28.0783 42.5864 28.4368 42.3603 28.7282C42.1342 29.0196 41.8174 29.2274 41.46 29.3186C39.0817 29.9244 37.1067 30.2361 35.085 30.2352C33.065 30.2352 31.0383 29.9219 28.5567 29.3161C28.1956 29.2275 27.8746 29.0202 27.6453 28.7276C27.4159 28.4349 27.2914 28.0737 27.2917 27.7019V26.9777H26.6667C26.2246 26.9777 25.8007 26.8021 25.4882 26.4896C25.1756 26.177 25 25.7531 25 25.3111V24.0377C25 23.5957 25.1756 23.1718 25.4882 22.8592C25.8007 22.5467 26.2246 22.3711 26.6667 22.3711H27.2917V22.0244V22.0236ZM28.9583 22.0236V22.3711C28.9583 22.5899 28.9152 22.8067 28.8315 23.0089C28.7477 23.2111 28.6249 23.3948 28.4702 23.5496C28.3154 23.7043 28.1317 23.8271 27.9295 23.9109C27.7273 23.9946 27.5105 24.0377 27.2917 24.0377H26.6667V25.3111H27.2917C27.7337 25.3111 28.1576 25.4867 28.4702 25.7992C28.7827 26.1118 28.9583 26.5357 28.9583 26.9777V27.6986C31.3633 28.2852 33.2475 28.5686 35.0858 28.5686C36.9217 28.5694 38.75 28.2886 41.0417 27.7061V26.9777C41.0417 26.5357 41.2173 26.1118 41.5298 25.7992C41.8424 25.4867 42.2663 25.3111 42.7083 25.3111H43.3333V24.0377H42.7083C42.2663 24.0377 41.8424 23.8621 41.5298 23.5496C41.2173 23.237 41.0417 22.8131 41.0417 22.3711V22.0261L41.04 22.0244C41.038 22.0229 41.0358 22.0217 41.0333 22.0211H41.0267C36.4867 22.8977 33.5083 22.8869 28.9725 22.0186H28.9658C28.9637 22.0193 28.9617 22.0204 28.96 22.0219L28.9583 22.0236Z" fill="#FD5579"/>
<path fill-rule="evenodd" clip-rule="evenodd" d="M30.8333 23.5C31.0543 23.5 31.2663 23.5878 31.4226 23.7441C31.5789 23.9004 31.6667 24.1123 31.6667 24.3333V26C31.6667 26.221 31.5789 26.433 31.4226 26.5893C31.2663 26.7455 31.0543 26.8333 30.8333 26.8333C30.6123 26.8333 30.4004 26.7455 30.2441 26.5893C30.0878 26.433 30 26.221 30 26V24.3333C30 24.1123 30.0878 23.9004 30.2441 23.7441C30.4004 23.5878 30.6123 23.5 30.8333 23.5ZM27.2917 32.8575C27.2917 31.7958 28.2633 31.02 29.2858 31.2158C33.6175 32.0442 36.3817 32.0542 40.7108 31.2183C41.7333 31.0208 42.7083 31.7967 42.7083 32.86V33.205H43.3333C43.7754 33.205 44.1993 33.3806 44.5118 33.6932C44.8244 34.0057 45 34.4296 45 34.8717V36.145C45 36.587 44.8244 37.011 44.5118 37.3235C44.1993 37.6361 43.7754 37.8117 43.3333 37.8117H42.7083V38.5433C42.7088 38.9122 42.5864 39.2707 42.3603 39.5621C42.1342 39.8536 41.8174 40.0613 41.46 40.1525C39.0817 40.7583 37.1067 41.07 35.085 41.0692C33.065 41.0692 31.0383 40.7558 28.5567 40.15C28.1957 40.0614 27.8749 39.8543 27.6455 39.5618C27.4162 39.2693 27.2916 38.9084 27.2917 38.5367V37.8117H26.6667C26.2246 37.8117 25.8007 37.6361 25.4882 37.3235C25.1756 37.011 25 36.587 25 36.145V34.8717C25 34.4296 25.1756 34.0057 25.4882 33.6932C25.8007 33.3806 26.2246 33.205 26.6667 33.205H27.2917V32.8575ZM28.9583 32.8575V33.205C28.9583 33.647 28.7827 34.071 28.4702 34.3835C28.1576 34.6961 27.7337 34.8717 27.2917 34.8717H26.6667V36.145H27.2917C27.7337 36.145 28.1576 36.3206 28.4702 36.6332C28.7827 36.9457 28.9583 37.3696 28.9583 37.8117V38.5325C31.3633 39.1192 33.2475 39.4025 35.0858 39.4025C36.9217 39.4033 38.75 39.1225 41.0417 38.54V37.8117C41.0417 37.3696 41.2173 36.9457 41.5298 36.6332C41.8424 36.3206 42.2663 36.145 42.7083 36.145H43.3333V34.8717H42.7083C42.2663 34.8717 41.8424 34.6961 41.5298 34.3835C41.2173 34.071 41.0417 33.647 41.0417 33.205V32.86L41.04 32.8583C41.038 32.8568 41.0358 32.8557 41.0333 32.855H41.0267C36.4867 33.7317 33.5083 33.7208 28.9725 32.8525H28.9658C28.9637 32.8532 28.9617 32.8543 28.96 32.8558L28.9583 32.8575Z" fill="#FD5579"/>
<path fill-rule="evenodd" clip-rule="evenodd" d="M30.8333 34.332C31.0543 34.332 31.2663 34.4198 31.4226 34.5761C31.5789 34.7324 31.6667 34.9444 31.6667 35.1654V36.832C31.6667 37.053 31.5789 37.265 31.4226 37.4213C31.2663 37.5776 31.0543 37.6654 30.8333 37.6654C30.6123 37.6654 30.4004 37.5776 30.2441 37.4213C30.0878 37.265 30 37.053 30 36.832V35.1654C30 34.9444 30.0878 34.7324 30.2441 34.5761C30.4004 34.4198 30.6123 34.332 30.8333 34.332ZM27.2917 43.6895C27.2917 42.6279 28.2633 41.852 29.2858 42.0479C33.6175 42.8762 36.3817 42.8862 40.7108 42.0504C41.7333 41.8529 42.7083 42.6287 42.7083 43.692V44.037H43.3333C43.7754 44.037 44.1993 44.2126 44.5118 44.5252C44.8244 44.8377 45 45.2617 45 45.7037V46.977C45 47.4191 44.8244 47.843 44.5118 48.1555C44.1993 48.4681 43.7754 48.6437 43.3333 48.6437H42.7083V49.3754C42.7088 49.7442 42.5864 50.1027 42.3603 50.3942C42.1342 50.6856 41.8174 50.8933 41.46 50.9845C39.0817 51.5904 37.1067 51.902 35.085 51.9012C33.065 51.9012 31.0383 51.5879 28.5567 50.982C28.1957 50.8934 27.8749 50.6863 27.6455 50.3938C27.4162 50.1013 27.2916 49.7404 27.2917 49.3687V48.6437H26.6667C26.2246 48.6437 25.8007 48.4681 25.4882 48.1555C25.1756 47.843 25 47.4191 25 46.977V45.7037C25 45.2617 25.1756 44.8377 25.4882 44.5252C25.8007 44.2126 26.2246 44.037 26.6667 44.037H27.2917V43.6895ZM28.9583 43.6895V44.037C28.9583 44.4791 28.7827 44.903 28.4702 45.2155C28.1576 45.5281 27.7337 45.7037 27.2917 45.7037H26.6667V46.977H27.2917C27.7337 46.977 28.1576 47.1526 28.4702 47.4652C28.7827 47.7777 28.9583 48.2017 28.9583 48.6437V49.3645C31.3633 49.9512 33.2475 50.2345 35.0858 50.2345C36.9217 50.2354 38.75 49.9545 41.0417 49.372V48.6437C41.0417 48.2017 41.2173 47.7777 41.5298 47.4652C41.8424 47.1526 42.2663 46.977 42.7083 46.977H43.3333V45.7037H42.7083C42.2663 45.7037 41.8424 45.5281 41.5298 45.2155C41.2173 44.903 41.0417 44.4791 41.0417 44.037V43.692L41.04 43.6904C41.038 43.6888 41.0358 43.6877 41.0333 43.687H41.0267C36.4867 44.5637 33.5083 44.5529 28.9725 43.6845H28.9658C28.9637 43.6852 28.9617 43.6864 28.96 43.6879L28.9583 43.6895Z" fill="#FD5579"/>
<path fill-rule="evenodd" clip-rule="evenodd" d="M30.8333 45.166C31.0543 45.166 31.2663 45.2538 31.4226 45.4101C31.5789 45.5664 31.6667 45.7783 31.6667 45.9993V47.666C31.6667 47.887 31.5789 48.099 31.4226 48.2553C31.2663 48.4116 31.0543 48.4993 30.8333 48.4993C30.6123 48.4993 30.4004 48.4116 30.2441 48.2553C30.0878 48.099 30 47.887 30 47.666V45.9993C30 45.7783 30.0878 45.5664 30.2441 45.4101C30.4004 45.2538 30.6123 45.166 30.8333 45.166Z" fill="#FD5579"/>
</svg>
