<svg width="70" height="70" viewBox="0 0 70 70" fill="none" xmlns="http://www.w3.org/2000/svg">
<circle cx="35" cy="35" r="34" stroke="#FD5579" stroke-width="2"/>
<path d="M31.0143 28.3305C31.0143 28.8781 30.5571 29.322 29.9929 29.322H24.6237C24.0595 29.322 23.6023 28.8781 23.6023 28.3305C23.6023 27.783 24.0595 27.3391 24.6237 27.3391H29.9928C30.557 27.3391 31.0143 27.783 31.0143 28.3305ZM30.5011 55.0086C30.5011 55.5562 30.0439 56 29.4797 56H25.1367C21.7529 56 19 53.3279 19 50.0434V26.8197C19 24.6819 20.1854 22.7234 22.0706 21.6642V18.8877C21.4619 18.3772 21.0762 17.6228 21.0762 16.7825C21.0762 15.2482 22.362 14 23.9426 14H30.6739C32.2543 14 33.5402 15.2482 33.5402 16.7824C33.5402 17.6227 33.1545 18.3772 32.5459 18.8877V21.6641C34.4311 22.7232 35.6164 24.6819 35.6164 26.8196V28.2248C35.6164 28.7724 35.1591 29.2162 34.5949 29.2162C34.0308 29.2162 33.5735 28.7724 33.5735 28.2248V26.8196C33.5735 25.2458 32.6078 23.8166 31.1133 23.1786C30.7424 23.0203 30.503 22.6643 30.503 22.2712V19.5648H24.1134V22.2712C24.1134 22.6643 23.874 23.0205 23.5032 23.1788C22.0086 23.8166 21.0428 25.2458 21.0428 26.8196V50.0433C21.0428 52.2344 22.8793 54.017 25.1367 54.017H29.4797C30.0439 54.0171 30.5011 54.461 30.5011 55.0086ZM23.119 16.7824C23.119 17.2232 23.4885 17.5819 23.9427 17.5819H30.674C31.128 17.5819 31.4975 17.2232 31.4975 16.7825C31.4975 16.3415 31.128 15.9829 30.674 15.9829H23.9426C23.4962 15.9829 23.119 16.3489 23.119 16.7824ZM48.932 43.5889C49.2824 44.5642 49.4681 45.6008 49.4681 46.6599C49.4681 50.3892 47.2046 53.6151 43.9411 55.111C43.8995 55.1334 43.8566 55.1525 43.813 55.1686C42.6027 55.7024 41.2591 55.9999 39.8455 55.9999C34.5398 55.9999 30.2233 51.81 30.2233 46.6599C30.2233 43.785 31.5918 41.0754 33.9093 39.3094V35.926C33.9093 33.0023 36.1642 30.5802 39.0745 30.2124C39.2662 29.6593 39.4961 29.1235 39.7626 28.6072C38.8936 26.119 39.6976 23.0127 41.812 20.8801C44.1328 18.5388 47.406 17.6178 49.9566 18.5884C50.2087 18.6844 50.4113 18.8736 50.5197 19.1144C51.6163 21.5508 50.7939 24.7607 48.4729 27.1018C46.3122 29.2812 43.6871 30.2825 41.4141 29.8521C41.3423 30.0053 41.2743 30.1605 41.21 30.3176C43.8281 30.9173 45.7822 33.2043 45.7822 35.926V39.3094C47.2018 40.3911 48.2653 41.8269 48.8762 43.4378C48.8987 43.4861 48.9175 43.5365 48.932 43.5889ZM41.4852 26.093C41.994 25.5173 42.5603 24.9833 43.1794 24.497C43.3684 24.3485 43.5956 24.2764 43.8211 24.2764C44.1189 24.2764 44.4141 24.4021 44.6159 24.6442C44.9707 25.0699 44.9028 25.6941 44.4643 26.0386C43.7407 26.6067 43.1033 27.2524 42.5613 27.9616C43.9841 27.9259 45.6103 27.1294 47.0007 25.7271C48.5965 24.1175 49.296 21.9532 48.7962 20.3056C47.0801 19.8838 44.8793 20.6454 43.2839 22.255C42.1351 23.4138 41.583 24.8198 41.4852 26.093ZM41.9186 53.7373C41.3598 52.6848 41.0688 51.5204 41.0688 50.3111C41.0688 46.9852 43.327 44.1014 46.501 43.1419C45.9456 42.1525 45.156 41.285 44.1764 40.6216C43.9025 40.4361 43.7393 40.1326 43.7393 39.8084V35.926C43.7393 33.849 42.0038 32.1578 39.8663 32.1468C39.8528 32.1472 39.8393 32.1472 39.8256 32.1468C37.688 32.1574 35.9522 33.8486 35.9522 35.926V39.8084C35.9522 40.1325 35.789 40.4361 35.5151 40.6216C33.4807 41.9992 32.2661 44.2564 32.2661 46.6598C32.2661 50.7165 35.6662 54.0169 39.8455 54.0169C40.5641 54.017 41.2593 53.9195 41.9186 53.7373ZM47.4253 46.6598C47.4253 46.0953 47.3582 45.5388 47.2293 45C44.8306 45.6679 43.1115 47.8209 43.1115 50.3111C43.1115 51.2417 43.3456 52.136 43.7943 52.9377C45.9704 51.6433 47.4253 49.3134 47.4253 46.6598ZM29.9929 34.585H24.6237C24.0595 34.585 23.6023 35.0289 23.6023 35.5765C23.6023 36.1241 24.0595 36.5679 24.6237 36.5679H29.9928C30.557 36.5679 31.0142 36.1241 31.0142 35.5765C31.0142 35.0289 30.557 34.585 29.9929 34.585Z" fill="#FD5579"/>
</svg>
